<svg width="126" height="126" viewBox="0 0 126 126" fill="none" xmlns="http://www.w3.org/2000/svg">
<path fill-rule="evenodd" clip-rule="evenodd" d="M126 11.5882V119.369C126 123.016 122.989 126 119.304 126H107.604C91.9244 126 61.1581 117.716 81.6016 111.975C93.1113 108.74 83.4867 103.629 75.8884 101.567C74.2519 101.067 73.8117 100.812 75.1749 100.436C78.1866 99.5709 81.0591 98.3937 83.7648 96.9386C97.6979 89.5805 107.182 75.054 107.182 58.3326C107.182 34.1821 87.3981 14.5961 62.9979 14.5961C38.6019 14.5961 18.8164 34.1821 18.8164 58.3326C18.8164 78.2233 32.2359 95.0105 50.598 100.317C50.5747 100.331 54.6851 101.516 60.3885 102.722C65.1797 103.732 62.7053 107.345 57.5248 108.624C42.6474 112.299 35.9935 110.866 24.4656 121.826C21.5786 124.573 16.7448 126 12.7471 126H6.69457C3.01177 126 0 123.016 0 119.369V6.62631C0 2.97997 3.01177 0 6.69457 0H14.0999H14.1878H111.816H111.901H119.304C122.989 0 126 2.97997 126 6.62631V11.5882Z" fill="#F3F4F7"/>
<g clip-path="url(#clip0_2074_3)">
<path d="M84.4084 41.6402L80.5974 39.097C79.4224 38.3114 78.0405 37.8923 76.6269 37.893H49.872L47.5807 33.3044C47.4511 33.0458 47.2518 32.8286 47.0052 32.6774C46.7586 32.5262 46.4747 32.4471 46.1854 32.4488H43.5566C42.6975 32.4488 42.0011 33.1452 42.0011 34.0043V37.9374C40.6702 38.1622 39.6891 39.3045 39.6678 40.6541C39.6709 41.1445 39.8052 41.6252 40.0567 42.0463C39.3437 43.1197 39.6358 44.5678 40.7091 45.2808C41.092 45.5351 41.5415 45.6707 42.0011 45.6705H45.4178L48.8454 47.7284C50.839 48.9278 53.1219 49.5608 55.4485 49.5592H59.7635L60.5359 49.8167C61.5697 50.1611 62.6522 50.3368 63.7418 50.337H63.7783V51.1147C63.7783 52.4033 64.823 53.448 66.1116 53.448H70.7782C71.6373 53.448 72.3337 52.7516 72.3337 51.8924V50.3369C73.0845 50.3341 73.8084 50.0576 74.3699 49.5592H82.009C84.3843 49.5282 86.3023 47.6102 86.3333 45.235C86.3353 44.5232 86.1604 43.8222 85.8245 43.1947C85.4885 42.5673 85.0019 42.0331 84.4084 41.6402ZM46.1893 34.0043L48.1337 37.8931H43.5566V34.0043H46.1893ZM41.2234 43.3373C41.2234 43.131 41.3053 42.9332 41.4512 42.7874C41.597 42.6415 41.7948 42.5596 42.0011 42.5596H48.2232C48.4295 42.5596 48.6273 42.6415 48.7731 42.7874C48.919 42.9332 49.0009 43.131 49.0009 43.3373C49.0009 43.5436 48.919 43.7414 48.7731 43.8872C48.6273 44.0331 48.4295 44.115 48.2232 44.115H42.0011C41.7948 44.115 41.597 44.0331 41.4512 43.8872C41.3053 43.7414 41.2234 43.5436 41.2234 43.3373ZM70.7782 51.8925H66.1116C65.9053 51.8925 65.7075 51.8106 65.5617 51.6648C65.4158 51.5189 65.3339 51.3211 65.3339 51.1148V50.3371H70.7782V51.8925ZM72.3337 48.7815H63.7418C62.8193 48.7815 61.9028 48.6331 61.0274 48.3421L56.3959 46.7975C56.2661 46.7536 56.1561 46.665 56.0854 46.5476C56.0148 46.4302 55.9881 46.2915 56.0101 46.1563C56.0321 46.021 56.1014 45.898 56.2057 45.809C56.3099 45.7201 56.4423 45.671 56.5794 45.6705H72.3336C73.1927 45.6705 73.8892 46.367 73.8892 47.2261C73.8893 48.0851 73.1928 48.7815 72.3337 48.7815ZM82.0091 48.0038H75.3344C75.4044 47.7503 75.4415 47.489 75.4448 47.2261C75.4448 45.5079 74.052 44.1151 72.3338 44.1151H56.5794C55.4025 44.1117 54.4457 45.0631 54.4423 46.24C54.4413 46.5872 54.5252 46.9294 54.6866 47.2368C54.848 47.5442 55.0821 47.8075 55.3685 48.0038C53.3529 47.9903 51.3778 47.4359 49.6496 46.3985L48.4099 45.6542C49.6926 45.568 50.6626 44.4583 50.5763 43.1755C50.4933 41.9415 49.4598 40.9879 48.2232 41.0041H42.0011C41.7685 41.0073 41.5377 41.0458 41.3167 41.1184C41.2552 40.9705 41.2235 40.8119 41.2234 40.6517C41.2413 39.9939 41.7711 39.4652 42.4289 39.4485H76.6269C77.7332 39.448 78.8146 39.7761 79.7341 40.3911L80.6558 41.004H75.4448C75.0153 41.004 74.6671 41.3521 74.6671 41.7817C74.6671 42.2112 75.0153 42.5594 75.4448 42.5594H82.9837L83.5476 42.9358C83.9271 43.1871 84.2382 43.5287 84.453 43.93C84.6678 44.3313 84.7795 44.7797 84.778 45.2349C84.7582 46.7559 83.53 47.9841 82.0091 48.0038Z" fill="#00509E"/>
<path d="M41 66.5V77H42.5L43.5 75L45.5 73.5H48L49.5 74L51.5 76V78H72.5V77L73.5 75L75.5 73.5H78.5L80.5 75L82 78L85.5 77V74L84.5 71.5H83L80.5 70.5V68L75.5 66.5H49.5H41Z" fill="#FFE100"/>
<path d="M70.7783 41.004H69.2228C68.7932 41.004 68.445 41.3522 68.445 41.7817C68.445 42.2113 68.7932 42.5595 69.2228 42.5595H70.7783C70.9846 42.5595 71.1824 42.4775 71.3283 42.3317C71.4741 42.1858 71.556 41.988 71.556 41.7817C71.5561 41.6796 71.5359 41.5785 71.4969 41.4841C71.4578 41.3897 71.4005 41.304 71.3283 41.2318C71.2561 41.1596 71.1703 41.1023 71.076 41.0632C70.9816 41.0241 70.8805 41.004 70.7783 41.004ZM56.7786 41.004H55.2231C55.0168 41.004 54.819 41.086 54.6732 41.2318C54.5273 41.3777 54.4454 41.5755 54.4454 41.7817C54.4454 41.988 54.5273 42.1858 54.6732 42.3317C54.819 42.4775 55.0168 42.5595 55.2231 42.5595H56.7786C56.9849 42.5595 57.1827 42.4775 57.3286 42.3317C57.4744 42.1858 57.5564 41.988 57.5564 41.7817C57.5564 41.6796 57.5363 41.5785 57.4972 41.4841C57.4581 41.3897 57.4008 41.304 57.3286 41.2318C57.2564 41.1596 57.1706 41.1023 57.0763 41.0632C56.9819 41.0241 56.8808 41.004 56.7786 41.004ZM66.1118 41.004H64.5562C64.1266 41.004 63.7785 41.3522 63.7785 41.7817C63.7785 42.2113 64.1266 42.5595 64.5562 42.5595H66.1118C66.318 42.5595 66.5158 42.4775 66.6617 42.3317C66.8076 42.1858 66.8895 41.988 66.8895 41.7817C66.8895 41.6796 66.8694 41.5785 66.8303 41.4841C66.7912 41.3897 66.7339 41.304 66.6617 41.2318C66.5895 41.1596 66.5038 41.1023 66.4094 41.0632C66.315 41.0241 66.2139 41.004 66.1118 41.004ZM61.4452 41.004H59.8897C59.4601 41.004 59.1119 41.3522 59.1119 41.7817C59.1119 42.2113 59.4601 42.5595 59.8897 42.5595H61.4452C61.6515 42.5595 61.8493 42.4775 61.9951 42.3317C62.141 42.1858 62.2229 41.988 62.2229 41.7817C62.2229 41.6796 62.2028 41.5785 62.1638 41.4841C62.1247 41.3897 62.0674 41.304 61.9952 41.2318C61.9229 41.1596 61.8372 41.1023 61.7428 41.0632C61.6485 41.0241 61.5473 41.004 61.4452 41.004ZM84.456 67.0945L74.2355 65.049L65.9173 58.1201C65.2185 57.5379 64.3381 57.2185 63.4285 57.2172H62.7036L61.7928 55.3957C61.6002 55.0073 61.3026 54.6807 60.9337 54.4528C60.5649 54.2249 60.1396 54.1048 59.7061 54.1062H58.5178C58.0842 54.1048 57.6589 54.2249 57.2901 54.4528C56.9213 54.6807 56.6237 55.0073 56.431 55.3957L55.5202 57.2172H54.181C53.15 57.2196 52.1615 57.6284 51.4301 58.355L44.7903 64.9946H42.0012C40.7127 64.9946 39.668 66.0393 39.668 67.3279V75.8831C39.668 77.6012 41.0608 78.9941 42.779 78.9941H43.0512C43.9058 81.4209 46.5659 82.6956 48.9928 81.8411C49.6501 81.6096 50.247 81.2337 50.7398 80.741C51.2325 80.2483 51.6084 79.6513 51.8398 78.9941H72.606C73.4606 81.4209 76.1207 82.6956 78.5476 81.8411C79.2049 81.6096 79.8018 81.2337 80.2946 80.741C80.7873 80.2483 81.1632 79.6513 81.3946 78.9941H84.0002C85.2888 78.9941 86.3335 77.9494 86.3335 76.6608V69.3811C86.3288 68.2703 85.5447 67.3154 84.456 67.0945ZM84.778 69.3811V70.4388H82.4447C82.2384 70.4388 82.0406 70.3569 81.8948 70.211C81.7489 70.0652 81.667 69.8674 81.667 69.6611V68.122L84.1488 68.619C84.3253 68.6543 84.4842 68.7494 84.5988 68.8882C84.7134 69.0271 84.7767 69.2011 84.778 69.3811ZM64.9218 59.3171L71.7396 64.9946H59.8897V58.7726H63.4286C63.9746 58.7743 64.5029 58.9669 64.9218 59.3171ZM57.8224 56.0933C57.8863 55.9635 57.9854 55.8542 58.1083 55.7779C58.2312 55.7016 58.3731 55.6613 58.5178 55.6617H59.7062C59.8507 55.6612 59.9924 55.7013 60.1154 55.7773C60.2383 55.8533 60.3374 55.9623 60.4015 56.0918L60.9646 57.2172H57.2593L57.8224 56.0933ZM52.5336 59.4563C52.9715 59.0207 53.5633 58.7751 54.181 58.7726H58.3342V64.9946H46.9898L52.5336 59.4563ZM42.0012 66.5501H42.779V68.1056C42.779 68.3118 42.697 68.5097 42.5512 68.6555C42.4053 68.8014 42.2075 68.8833 42.0012 68.8833H41.2235V67.3278C41.2235 67.2256 41.2436 67.1245 41.2827 67.0302C41.3218 66.9358 41.3791 66.8501 41.4513 66.7779C41.5235 66.7057 41.6093 66.6484 41.7036 66.6093C41.798 66.5702 41.8991 66.5501 42.0012 66.5501ZM47.4455 80.5496C45.7274 80.5496 44.3345 79.1567 44.3345 77.4386C44.3345 75.7205 45.7274 74.3277 47.4455 74.3277C49.1637 74.3277 50.5565 75.7205 50.5565 77.4386C50.5566 79.1567 49.1638 80.5496 47.4455 80.5496ZM77.0004 80.5496C75.2823 80.5496 73.8894 79.1567 73.8894 77.4386C73.8894 75.7205 75.2823 74.3277 77.0004 74.3277C78.7186 74.3277 80.1114 75.7205 80.1114 77.4386C80.1114 79.1567 78.7186 80.5496 77.0004 80.5496ZM84.0003 77.4385H81.667C81.667 74.8613 79.5777 72.7721 77.0004 72.7721C74.4232 72.7721 72.3339 74.8613 72.3339 77.4385H52.1121C52.1121 74.8613 50.0228 72.7721 47.4455 72.7721C44.8683 72.7721 42.779 74.8613 42.779 77.4385C41.9199 77.4385 41.2234 76.7421 41.2234 75.883V70.4388H42.0012C43.2897 70.4388 44.3344 69.3941 44.3344 68.1056V66.5501H73.8115L80.1113 67.8108V69.6611C80.1113 70.9497 81.156 71.9943 82.4446 71.9943H84.7779V76.6608C84.7779 76.7629 84.7578 76.8641 84.7188 76.9584C84.6797 77.0528 84.6224 77.1385 84.5502 77.2108C84.478 77.283 84.3922 77.3403 84.2979 77.3794C84.2035 77.4184 84.1024 77.4385 84.0003 77.4385Z" fill="#00509E"/>
<path d="M69.2227 71.2166H67.6672V69.6611C67.6672 68.802 66.9707 68.1056 66.1116 68.1056H64.5561C63.697 68.1056 63.0005 68.802 63.0005 69.6611V71.2166H61.445V69.6611C61.445 68.802 60.7486 68.1056 59.8894 68.1056H58.3339C57.4748 68.1056 56.7783 68.802 56.7783 69.6611V71.2166H55.2228C54.3637 71.2166 53.6672 71.9131 53.6672 72.7722V74.3277C53.6672 75.1868 54.3637 75.8832 55.2228 75.8832H56.7783C57.6375 75.8832 58.3339 75.1868 58.3339 74.3277V72.7721H59.8894V74.3276C59.8894 75.1867 60.5859 75.8831 61.445 75.8831H63.0005C63.8597 75.8831 64.5561 75.1867 64.5561 74.3276V72.7721H66.1116V74.3276C66.1116 75.1867 66.8081 75.8831 67.6672 75.8831H69.2227C70.0819 75.8831 70.7783 75.1867 70.7783 74.3276V72.7721C70.7782 71.9131 70.0818 71.2166 69.2227 71.2166ZM55.2231 74.3276V72.7721H56.7786V74.3276H55.2231ZM58.3341 69.6611H59.8896V71.2166H58.3341V69.6611ZM61.4451 74.3276V72.7721H63.0006V74.3276H61.4451ZM64.5562 69.6611H66.1117V71.2166H64.5562V69.6611ZM67.6672 74.3276V72.7721H69.2227V74.3276H67.6672Z" fill="#00509E"/>
</g>
<defs>
<clipPath id="clip0_2074_3">
<rect width="50" height="50" fill="white" transform="translate(38 32)"/>
</clipPath>
</defs>
</svg>
