<svg width="126" height="126" viewBox="0 0 126 126" fill="none" xmlns="http://www.w3.org/2000/svg">
<path fill-rule="evenodd" clip-rule="evenodd" d="M126 11.5882V119.369C126 123.016 122.989 126 119.304 126H107.604C91.9244 126 61.1581 117.716 81.6016 111.975C93.1113 108.74 83.4867 103.629 75.8884 101.567C74.2519 101.067 73.8117 100.812 75.1749 100.436C78.1866 99.5709 81.0591 98.3937 83.7648 96.9386C97.6979 89.5805 107.182 75.054 107.182 58.3326C107.182 34.1821 87.3981 14.5961 62.9979 14.5961C38.6019 14.5961 18.8164 34.1821 18.8164 58.3326C18.8164 78.2233 32.2359 95.0105 50.598 100.317C50.5747 100.331 54.6851 101.516 60.3885 102.722C65.1797 103.732 62.7053 107.345 57.5248 108.624C42.6474 112.299 35.9935 110.866 24.4656 121.826C21.5786 124.573 16.7448 126 12.7471 126H6.69457C3.01177 126 0 123.016 0 119.369V6.62631C0 2.97997 3.01177 0 6.69457 0H14.0999H14.1878H111.816H111.901H119.304C122.989 0 126 2.97997 126 6.62631V11.5882Z" fill="#F3F4F7"/>
<g clip-path="url(#clip0_2074_2)">
<path d="M39.5 61.5L42.5 71.5L47.5 72L53.5 73L59 75L63 77.5L65 76L68.5 73.5L76 72L83.5 71.5L86 61.5L82 62.5L75.5 64L70 67.5L66 72L63 75.5L62 75L56.5 67.5L50 63.5L39.5 61.5Z" fill="#FFE100"/>
<path d="M87.3164 75.2953L67.5171 78.7656V78.9539C67.5171 80.6335 66.316 82 64.8395 82H61.1979C59.7214 82 58.5202 80.6336 58.5202 78.9539V78.7658L38.6813 75.2954C38.4704 75.2577 38.2813 75.1265 38.1554 74.9304C38.0294 74.7344 37.9769 74.4896 38.0094 74.2496C38.0418 74.0097 38.1566 73.7941 38.3285 73.6502C38.5004 73.5063 38.7154 73.4457 38.9265 73.4818L59.4493 77.072C59.6397 77.1053 59.8133 77.2151 59.9387 77.3814C60.0642 77.5477 60.1332 77.7596 60.1332 77.9788V78.9539C60.1332 79.6217 60.6108 80.1651 61.1979 80.1651H64.8395C65.4265 80.1651 65.9041 79.6218 65.9041 78.9539V77.9788C65.9042 77.7597 65.9731 77.5478 66.0985 77.3815C66.2239 77.2152 66.3975 77.1055 66.5878 77.0721L87.0709 73.482C87.5098 73.4034 87.9228 73.748 87.9907 74.2489C88.0233 74.4894 87.9705 74.7347 87.844 74.931C87.7176 75.1272 87.5278 75.2582 87.3164 75.2953ZM38.5769 61.6021C38.5354 61.464 38.5235 61.3166 38.5421 61.1721C38.5607 61.0277 38.6093 60.8904 38.6839 60.7716C38.7585 60.6529 38.857 60.556 38.9711 60.4892C39.0852 60.4224 39.2117 60.3876 39.34 60.3875C43.8581 60.3875 48.4913 61.5405 52.3863 63.634C56.9804 66.1033 60.5443 69.7764 62.9988 74.566C65.4534 69.7763 69.0172 66.1033 73.6114 63.634C77.5064 61.5405 82.1396 60.3875 86.6577 60.3875C86.786 60.3875 86.9125 60.4224 87.0266 60.4891C87.1408 60.5559 87.2392 60.6527 87.3139 60.7715C87.3885 60.8903 87.4371 61.0276 87.4557 61.1721C87.4743 61.3165 87.4623 61.464 87.4207 61.6021L84.2647 72.0898C84.2103 72.2707 84.1074 72.4278 83.9706 72.539C83.8338 72.6502 83.6699 72.71 83.5018 72.7101C75.2296 72.7101 68.1122 74.7439 63.4605 78.437C63.4581 78.4389 63.4556 78.44 63.4533 78.4418C63.4227 78.4657 63.3907 78.4871 63.3575 78.506C63.3524 78.5087 63.3473 78.5114 63.3422 78.514C63.3112 78.5306 63.2796 78.5449 63.2474 78.5568C63.243 78.5584 63.2387 78.5604 63.2342 78.5619C63.1925 78.5761 63.1499 78.5865 63.1067 78.5929C63.0709 78.5984 63.0349 78.6021 62.9988 78.6021C62.9627 78.6021 62.9268 78.5984 62.891 78.5929C62.8478 78.5865 62.8051 78.5761 62.7634 78.5619C62.759 78.5604 62.7547 78.5584 62.7502 78.5568C62.7179 78.5448 62.6862 78.5305 62.6555 78.514C62.6504 78.5114 62.6453 78.5087 62.6402 78.506C62.607 78.4871 62.575 78.4657 62.5444 78.4418C62.5421 78.44 62.5394 78.4389 62.5371 78.437C57.8854 74.7439 50.7679 72.7101 42.4958 72.7101C42.3277 72.71 42.1637 72.6502 42.0269 72.539C41.8901 72.4278 41.7873 72.2707 41.7329 72.0898L38.5769 61.6021ZM43.0733 70.8785C48.2159 70.9365 52.9288 71.771 56.9148 73.2939C52.3914 69.8596 46.8857 67.1182 41.8943 66.9606L43.0733 70.8785ZM84.1033 66.9605C79.1119 67.1181 73.6062 69.8595 69.0827 73.2938C73.0687 71.7708 77.7817 70.9365 82.9243 70.8784L84.1033 66.9605ZM64.9338 74.4875C70.2843 69.5042 77.7822 65.1176 84.5535 65.1176C84.5881 65.1176 84.6219 65.1209 84.6554 65.1257L85.5205 62.2507C81.0219 62.4679 70.7928 64.156 64.9338 74.4875ZM40.4769 62.2507L41.3421 65.1257C41.3759 65.1206 41.4099 65.1179 41.4439 65.1176C48.2153 65.1176 55.7132 69.5042 61.0637 74.4875C55.2047 64.156 44.9756 62.4679 40.4769 62.2507ZM42.3896 38.7426C42.3896 38.5403 42.4484 38.3437 42.5568 38.1834C42.6652 38.023 42.8171 37.9079 42.989 37.856L62.2668 32.0307C62.4025 31.9898 62.5452 31.9898 62.6809 32.0307L81.9586 37.856C82.1305 37.9079 82.2825 38.023 82.3909 38.1833C82.4993 38.3437 82.558 38.5403 82.558 38.7426C82.558 38.9449 82.4993 39.1415 82.3909 39.3018C82.2825 39.4622 82.1305 39.5772 81.9586 39.6292L81.3918 39.8005V49.534L83.2045 50.7246C83.3271 50.8052 83.4289 50.921 83.4997 51.0604C83.5705 51.1999 83.6077 51.3581 83.6077 51.5191V59.2076C83.6077 59.3781 83.5659 59.5451 83.4871 59.6901C83.4083 59.8351 83.2955 59.9522 83.1614 60.0283C83.0274 60.1046 82.8772 60.1369 82.728 60.1214C82.5787 60.1059 82.4362 60.0433 82.3164 59.9407L80.5853 58.4599L78.8539 59.9407C78.7342 60.0432 78.5917 60.1056 78.4424 60.1211C78.2932 60.1365 78.1431 60.1044 78.009 60.0282C77.875 59.9521 77.7622 59.835 77.6833 59.69C77.6045 59.545 77.5628 59.3779 77.5627 59.2075V51.519C77.5627 51.358 77.6 51.1998 77.6708 51.0603C77.7416 50.9209 77.8434 50.805 77.966 50.7245L79.7786 49.534V40.2878L76.4621 41.29V52.5637C76.4621 52.7784 76.3959 52.9863 76.275 53.1512C76.1542 53.3161 75.9863 53.4275 75.8006 53.4662C73.556 53.933 71.7052 54.3401 70.218 54.6672C66.382 55.5107 64.4277 55.9326 62.4737 55.9326C60.5195 55.9326 58.5652 55.5107 54.7293 54.6672C53.2422 54.3401 51.3914 53.9331 49.1467 53.4662C48.961 53.4275 48.7932 53.3161 48.6723 53.1512C48.5515 52.9863 48.4853 52.7784 48.4852 52.5637V41.29L42.9889 39.6292C42.817 39.5772 42.6651 39.4621 42.5567 39.3018C42.4483 39.1414 42.3896 38.9448 42.3896 38.7426ZM81.9948 52.0487L80.5855 51.123L79.176 52.0488V57.3697L80.1009 56.5788C80.2406 56.4592 80.4107 56.3945 80.5856 56.3945C80.7604 56.3945 80.9306 56.4592 81.0703 56.5788L81.9949 57.3697L81.9948 52.0487ZM74.8493 41.7775L62.681 45.4543C62.5453 45.4953 62.4025 45.4953 62.2668 45.4543L50.0984 41.7775V51.7996C52.0557 52.2104 53.6934 52.5706 55.0356 52.8658C62.474 54.5017 62.4741 54.5015 69.9121 52.8658C71.2542 52.5706 72.892 52.2104 74.8493 51.7996V41.7775ZM46.3374 38.7426L62.4738 43.6185L78.6101 38.7426L62.4739 33.8665L46.3374 38.7426Z" fill="#00509E"/>
</g>
<defs>
<clipPath id="clip0_2074_2">
<rect width="50" height="50" fill="white" transform="translate(38 32)"/>
</clipPath>
</defs>
</svg>
