<svg width="126" height="126" viewBox="0 0 126 126" fill="none" xmlns="http://www.w3.org/2000/svg">
<path fill-rule="evenodd" clip-rule="evenodd" d="M126 11.5882V119.369C126 123.016 122.989 126 119.304 126H107.604C91.9244 126 61.1581 117.716 81.6016 111.975C93.1113 108.74 83.4867 103.629 75.8884 101.567C74.2519 101.067 73.8117 100.812 75.1749 100.436C78.1866 99.5709 81.0591 98.3937 83.7648 96.9386C97.6979 89.5805 107.182 75.054 107.182 58.3326C107.182 34.1821 87.3981 14.5961 62.9979 14.5961C38.6019 14.5961 18.8164 34.1821 18.8164 58.3326C18.8164 78.2233 32.2359 95.0105 50.598 100.317C50.5747 100.331 54.6851 101.516 60.3885 102.722C65.1797 103.732 62.7053 107.345 57.5248 108.624C42.6474 112.299 35.9935 110.866 24.4656 121.826C21.5786 124.573 16.7448 126 12.7471 126H6.69457C3.01177 126 0 123.016 0 119.369V6.62631C0 2.97997 3.01177 0 6.69457 0H14.0999H14.1878H111.816H111.901H119.304C122.989 0 126 2.97997 126 6.62631V11.5882Z" fill="#F3F4F7"/>
<g clip-path="url(#clip0_2074_6)">
<circle cx="51" cy="73" r="7" fill="#FFE100"/>
<circle cx="76" cy="63" r="7" fill="#FFE100"/>
<path d="M66.4301 80.6531C66.2349 80.4578 66.1252 80.1929 66.1252 79.9166C66.1252 79.6404 66.2349 79.3755 66.4301 79.1802C67.3239 78.2864 68.6239 77.8333 70.2916 77.8333C71.9604 77.8333 73.2604 78.2864 74.1531 79.1802C74.3484 79.3755 74.4581 79.6404 74.4581 79.9166C74.4581 80.1929 74.3484 80.4578 74.1531 80.6531C73.9577 80.8484 73.6928 80.9582 73.4166 80.9582C73.1404 80.9582 72.8755 80.8484 72.6801 80.6531C72.1906 80.1646 71.3885 79.9166 70.2916 79.9166C69.1801 79.9166 68.3989 80.1573 67.9031 80.6531C67.7077 80.8484 67.4428 80.9581 67.1666 80.9581C66.8904 80.9581 66.6255 80.8484 66.4301 80.6531ZM81.5749 75.2864C81.8458 74.8812 82.2093 74.7083 82.7916 74.7083C83.3739 74.7083 83.7374 74.8812 84.0083 75.2864C84.0842 75.4003 84.1818 75.498 84.2955 75.5741C84.4092 75.6502 84.5367 75.7031 84.6709 75.7299C84.8051 75.7567 84.9432 75.7568 85.0774 75.7303C85.2116 75.7037 85.3393 75.6509 85.4531 75.575C85.5669 75.4991 85.6646 75.4015 85.7407 75.2878C85.8168 75.1741 85.8698 75.0465 85.8966 74.9123C85.9234 74.7782 85.9235 74.6401 85.8969 74.5059C85.8703 74.3717 85.8175 74.244 85.7416 74.1302C85.2843 73.4437 84.3999 72.625 82.7916 72.625C81.1833 72.625 80.2989 73.4437 79.8416 74.1302C79.7657 74.244 79.7129 74.3717 79.6863 74.5059C79.6598 74.6401 79.6599 74.7782 79.6866 74.9123C79.7134 75.0465 79.7664 75.1741 79.8425 75.2878C79.9186 75.4015 80.0163 75.4991 80.1301 75.575C80.36 75.7283 80.6414 75.784 80.9123 75.7299C81.0465 75.7031 81.174 75.6502 81.2877 75.5741C81.4014 75.498 81.499 75.4003 81.5749 75.2864ZM53.7426 64.5906L54.576 62.5791L53.7874 61.6625L49.6645 61.6614C48.8064 61.664 47.9608 61.4546 47.203 61.052C46.4451 60.6493 45.7984 60.0659 45.3202 59.3533C44.8419 58.6407 44.547 57.8211 44.4615 56.9672C44.376 56.1133 44.5026 55.2515 44.8301 54.4583L48.7499 44.9969C49.061 44.2495 49.5424 43.5851 50.1556 43.0567C50.7689 42.5282 51.4971 42.1503 52.2822 41.9531C51.7984 41.1496 51.5423 40.2296 51.5416 39.2916C51.5416 36.4198 53.8781 34.0833 56.7499 34.0833C59.6218 34.0833 61.9583 36.4198 61.9583 39.2916C61.9583 41.5781 60.4676 43.5031 58.4156 44.2021L64.6947 49.176C64.8707 49.144 65.0519 49.1583 65.2206 49.2174C65.3894 49.2766 65.5398 49.3786 65.6572 49.5135L70.9979 55.7177C72.5237 54.7088 74.3391 54.2298 76.164 54.3544C77.989 54.479 79.7224 55.2004 81.097 56.4073C82.4716 57.6141 83.4111 59.2396 83.7708 61.0331C84.1305 62.8266 83.8904 64.6887 83.0874 66.3323L87.9999 64.2979V66.5531L71.5281 73.376C70.5041 73.8 69.5395 73.9552 68.6885 74.0917C67.8937 74.2187 67.2083 74.3292 66.5416 74.6208C65.8447 74.926 65.1062 75.4125 64.3249 75.9281C63.4687 76.4927 62.5833 77.0771 61.6781 77.4583C61.0072 77.7416 56.1385 79.7583 50.7239 82H45.276L48.8906 80.5042C46.6885 79.7625 44.7979 78.1312 43.8385 75.8156C42.9921 73.7728 42.992 71.4774 43.838 69.4344C44.6841 67.3914 46.3071 65.7682 48.3499 64.9219C50.0601 64.2125 51.9585 64.0959 53.7426 64.5906ZM57.6312 71.2302L51.9406 73.5875C51.7502 73.6662 51.5408 73.6867 51.3387 73.6465C51.1367 73.6062 50.9512 73.5069 50.8056 73.3612C50.66 73.2155 50.5608 73.0299 50.5207 72.8278C50.4806 72.6257 50.5013 72.4163 50.5801 72.226L52.9385 66.5344C51.6739 66.2402 50.3489 66.3498 49.1499 66.8479C47.6289 67.4901 46.4236 68.7077 45.7969 70.2352C45.1703 71.7627 45.1732 73.476 45.8049 75.0014C46.4367 76.5268 47.6461 77.7404 49.1692 78.3775C50.6924 79.0145 52.4057 79.0234 53.9354 78.4021C55.2994 77.836 56.419 76.8052 57.0955 75.4924C57.772 74.1796 57.9618 72.6696 57.6312 71.2302ZM58.8864 68.4552C58.876 68.4351 58.8652 68.4153 58.8541 68.3958L58.1781 66.7635L56.0989 64.3479L55.6676 65.3885C56.9668 66.126 58.0423 67.2011 58.7801 68.5L58.8864 68.4552ZM70.7926 58.6708C69.8164 59.8458 69.3041 61.3375 69.3524 62.8643C69.4006 64.3911 70.0061 65.8475 71.0545 66.9585C72.1029 68.0695 73.5218 68.7583 75.0432 68.8949C76.5647 69.0315 78.0836 68.6064 79.3131 67.6999C80.5427 66.7934 81.3978 65.4682 81.7173 63.9743C82.0367 62.4805 81.7982 60.9214 81.0469 59.5914C80.2956 58.2613 79.0834 57.2523 77.6391 56.7547C76.1948 56.2572 74.6183 56.3055 73.2072 56.8906C72.9202 57.0121 72.6427 57.1548 72.377 57.3177L76.3916 61.9802C76.4843 62.0833 76.5554 62.2039 76.6008 62.3348C76.6463 62.4658 76.6652 62.6045 76.6563 62.7429C76.6475 62.8812 76.6111 63.0164 76.5493 63.1405C76.4876 63.2646 76.4016 63.3751 76.2966 63.4656C76.1916 63.5561 76.0695 63.6247 75.9376 63.6674C75.8058 63.7101 75.6667 63.726 75.5285 63.7143C75.3904 63.7026 75.256 63.6634 75.1332 63.599C75.0104 63.5347 74.9017 63.4465 74.8135 63.3396L70.7926 58.6708ZM68.4604 55.9625L64.1531 64.8583L64.6281 66.0042C64.945 66.7698 64.9448 67.63 64.6276 68.3956C64.3103 69.1611 63.702 69.7693 62.9364 70.0864C62.5456 70.2467 62.1264 70.3262 61.704 70.3199C61.2817 70.3136 60.865 70.2218 60.4791 70.05L59.5645 70.4291C60.105 72.3969 59.8998 74.495 58.9885 76.3208L60.8697 75.5385C61.5979 75.2312 62.3666 74.725 63.1801 74.1885C63.9999 73.6479 64.8479 73.0896 65.7072 72.7125C66.6166 72.3135 67.5031 72.1719 68.3593 72.0344C69.1687 71.9041 69.9333 71.7812 70.7312 71.451L72.9197 70.5448C70.7281 69.7989 68.852 68.1646 67.8958 65.8583C67.293 64.4007 67.1164 62.8019 67.3863 61.2478C67.6563 59.6937 68.3618 58.2481 69.4208 57.0791L68.4604 55.9625ZM63.0854 62.2812L65.6072 57.0739L61.9426 59.5229L63.0854 62.2812ZM61.4801 54.6031L57.3895 51.3573L55.7093 55.4146H58.1531C59.4197 55.4146 60.5531 56.1719 61.0395 57.3437L61.1291 57.5614L66.6562 53.8677L66.2676 53.4156C66.1635 53.6521 66.0385 53.8823 65.8708 54.0937C65.3555 54.7427 64.6039 55.1607 63.7808 55.2562C62.9577 55.3517 62.1303 55.1168 61.4801 54.6031ZM53.6249 39.2916C53.6249 41.0146 55.027 42.4166 56.7499 42.4166C58.4729 42.4166 59.8749 41.0146 59.8749 39.2916C59.8749 37.5687 58.4729 36.1666 56.7499 36.1666C55.027 36.1666 53.6249 37.5687 53.6249 39.2916ZM56.7604 59.5812C56.9664 59.5812 57.1678 59.6422 57.3391 59.7566C57.5104 59.871 57.644 60.0336 57.7229 60.2239L60.7791 67.6C60.8315 67.7264 60.9083 67.8412 61.005 67.9379C61.1018 68.0347 61.2167 68.1114 61.3431 68.1637C61.4695 68.2161 61.605 68.243 61.7419 68.2429C61.8787 68.2429 62.0142 68.2159 62.1406 68.1635C62.267 68.1111 62.3818 68.0344 62.4785 67.9376C62.5753 67.8408 62.652 67.7259 62.7043 67.5995C62.7566 67.4731 62.7835 67.3376 62.7835 67.2008C62.7835 67.0639 62.7565 66.9285 62.7041 66.8021L59.1156 58.1406C59.0369 57.9503 58.9036 57.7875 58.7324 57.673C58.5613 57.5584 58.3601 57.4971 58.1541 57.4969H49.6656C49.3893 57.4969 49.1243 57.3871 48.929 57.1918C48.7336 56.9964 48.6239 56.7315 48.6239 56.4552C48.6239 56.1789 48.7336 55.914 48.929 55.7186C49.1243 55.5233 49.3893 55.4135 49.6656 55.4135H53.4551L55.6937 50.0094L52.9031 47.7948C52.6866 47.6229 52.5473 47.3721 52.5157 47.0976C52.4842 46.823 52.563 46.5472 52.7348 46.3307C52.9067 46.1143 53.1575 45.9749 53.432 45.9434C53.7066 45.9118 53.9824 45.9906 54.1989 46.1625L62.776 52.9698C62.9931 53.1353 63.2665 53.209 63.5374 53.175C63.8083 53.141 64.055 53.002 64.2244 52.7879C64.3939 52.5739 64.4725 52.3018 64.4434 52.0303C64.4142 51.7589 64.2797 51.5097 64.0687 51.3364L55.4833 44.5364C55.262 44.3598 55.0178 44.214 54.7572 44.1031C53.9914 43.7873 53.1317 43.7881 52.3664 44.1052C51.6012 44.4223 50.9929 45.0299 50.6749 45.7948L46.7551 55.2562C46.4391 56.022 46.4397 56.8819 46.7568 57.6472C47.074 58.4125 47.6818 59.0208 48.4468 59.3385C48.8374 59.5 49.2416 59.5885 49.6583 59.5781L56.7604 59.5812ZM53.4666 70.7L56.8343 69.3052C56.3353 68.5061 55.661 67.8311 54.8624 67.3312L53.4666 70.7Z" fill="#00509E"/>
</g>
<defs>
<clipPath id="clip0_2074_6">
<rect width="50" height="50" fill="white" transform="translate(38 32)"/>
</clipPath>
</defs>
</svg>
