<svg width="126" height="126" viewBox="0 0 126 126" fill="none" xmlns="http://www.w3.org/2000/svg">
<path fill-rule="evenodd" clip-rule="evenodd" d="M126 11.5882V119.369C126 123.016 122.989 126 119.304 126H107.604C91.9244 126 61.1581 117.716 81.6016 111.975C93.1113 108.74 83.4867 103.629 75.8884 101.567C74.2519 101.067 73.8117 100.812 75.1749 100.436C78.1866 99.5709 81.0591 98.3937 83.7648 96.9386C97.6979 89.5805 107.182 75.054 107.182 58.3326C107.182 34.1821 87.3981 14.5961 62.9979 14.5961C38.6019 14.5961 18.8164 34.1821 18.8164 58.3326C18.8164 78.2233 32.2359 95.0105 50.598 100.317C50.5747 100.331 54.6851 101.516 60.3885 102.722C65.1797 103.732 62.7053 107.345 57.5248 108.624C42.6474 112.299 35.9935 110.866 24.4656 121.826C21.5786 124.573 16.7448 126 12.7471 126H6.69457C3.01177 126 0 123.016 0 119.369V6.62631C0 2.97997 3.01177 0 6.69457 0H14.0999H14.1878H111.816H111.901H119.304C122.989 0 126 2.97997 126 6.62631V11.5882Z" fill="#F3F4F7"/>
<g clip-path="url(#clip0_2074_7)">
<path d="M59.5 75L59 81C61.3333 80.8333 66 80.4 66 80C66 79.6 65.6667 76.5 65.5 75H59.5Z" fill="#FFE100"/>
<circle cx="62.5" cy="42.5" r="1.5" fill="#FFE100"/>
<circle cx="60.5" cy="52.5" r="1.5" fill="#FFE100"/>
<circle cx="66.5" cy="55.5" r="1.5" fill="#FFE100"/>
<circle cx="62.5" cy="66.5" r="1.5" fill="#FFE100"/>
<circle cx="70.5" cy="69.5" r="1.5" fill="#FFE100"/>
<circle cx="55.5" cy="69.5" r="1.5" fill="#FFE100"/>
<path d="M62.6406 44.8346C61.0971 44.8328 59.8469 43.5809 59.8481 42.0375C59.849 40.494 61.101 39.2434 62.6445 39.2438C64.188 39.2443 65.4386 40.4958 65.4386 42.0392C65.4363 43.5831 64.1844 44.8333 62.6406 44.8346ZM62.6406 41.4367C62.481 41.4375 62.3283 41.5016 62.2159 41.6148C62.1035 41.7281 62.0406 41.8814 62.0411 42.0409C62.0416 42.2006 62.1055 42.3535 62.2186 42.4661C62.3317 42.5787 62.4848 42.6419 62.6445 42.6417C62.804 42.6414 62.9569 42.5778 63.0696 42.4648C63.1823 42.3519 63.2456 42.1988 63.2456 42.0393C63.2451 41.8792 63.1811 41.7259 63.0677 41.6129C62.9543 41.5 62.8006 41.4365 62.6406 41.4367Z" fill="#00509E"/>
<path d="M81.0185 74.2696L73.5668 61.7008H75.7445C75.938 61.7008 76.128 61.6495 76.2953 61.5522C76.4627 61.455 76.6012 61.3152 76.6971 61.147C76.7927 60.9788 76.8422 60.7883 76.8404 60.5948C76.8387 60.4013 76.7858 60.2117 76.687 60.0452L69.2444 47.4916H70.5251C70.9193 47.4916 71.2829 47.2802 71.4778 46.9379C71.6727 46.5956 71.6688 46.1748 71.4682 45.8359L63.5837 32.5368C63.4866 32.3731 63.3486 32.2375 63.1833 32.1433C63.0179 32.0492 62.8309 31.9996 62.6406 31.9996C62.4503 31.9996 62.2633 32.0492 62.0979 32.1433C61.9326 32.2375 61.7945 32.3731 61.6975 32.5368L53.8128 45.8359C53.7142 46.0024 53.6613 46.1921 53.6597 46.3856C53.658 46.5791 53.7076 46.7696 53.8034 46.9378C53.8992 47.1059 54.0378 47.2457 54.2051 47.343C54.3724 47.4403 54.5625 47.4915 54.756 47.4916H56.0362L48.5936 60.0456C48.4949 60.2121 48.442 60.4018 48.4404 60.5953C48.4387 60.7889 48.4883 60.9794 48.5841 61.1476C48.6799 61.3157 48.8185 61.4556 48.9858 61.5528C49.1531 61.6501 49.3432 61.7014 49.5367 61.7014H51.7139L44.2626 74.2698C44.1639 74.4363 44.1111 74.6259 44.1094 74.8195C44.1078 75.013 44.1573 75.2035 44.2531 75.3717C44.3489 75.5398 44.4875 75.6796 44.6548 75.7769C44.8221 75.8742 45.0122 75.9254 45.2057 75.9255H57.9224V80.9037C57.9224 81.5092 58.4131 81.9999 59.0191 81.9999H66.2625C66.4064 81.9999 66.549 81.9715 66.682 81.9165C66.815 81.8614 66.9358 81.7806 67.0376 81.6789C67.1394 81.5771 67.2202 81.4562 67.2753 81.3232C67.3304 81.1902 67.3587 81.0477 67.3587 80.9037V75.9255H80.0754C80.2689 75.9254 80.459 75.8742 80.6263 75.7769C80.7936 75.6796 80.9322 75.5398 81.028 75.3717C81.1237 75.2035 81.1733 75.013 81.1717 74.8195C81.17 74.6259 81.1172 74.4363 81.0185 74.2698V74.2696ZM62.6406 35.246L68.6007 45.2987H56.6808L62.6406 35.246ZM51.4616 59.508L58.5858 47.4916H66.6952L73.8194 59.508H51.4616ZM65.1658 79.8069H60.1154V75.9253H65.1659L65.1658 79.8069ZM47.1306 73.7324L54.2613 61.7047H71.0198L78.1505 73.7324H47.1306Z" fill="#00509E"/>
<path d="M59.974 55.4323C58.4305 55.4305 57.1802 54.1786 57.1815 52.6352C57.1829 51.0918 58.4344 49.8411 59.9779 49.8416C61.5212 49.8424 62.7723 51.0935 62.7723 52.6369C62.7697 54.1813 61.5178 55.4314 59.974 55.4323ZM59.974 52.0348C59.8143 52.0355 59.6615 52.0995 59.549 52.2128C59.4365 52.3261 59.3736 52.4795 59.3741 52.6391C59.3744 52.7989 59.4381 52.952 59.5513 53.0648C59.6645 53.1776 59.8179 53.2408 59.9776 53.2405C60.1374 53.2402 60.2906 53.1764 60.4033 53.0632C60.5161 52.95 60.5793 52.7967 60.579 52.6369C60.5784 52.4768 60.5144 52.3236 60.4009 52.2107C60.2875 52.0979 60.134 52.0346 59.974 52.0348ZM67.062 58.6963C65.5181 58.6945 64.2683 57.4425 64.2692 55.899C64.2705 54.3557 65.5221 53.1049 67.0655 53.1055C68.6089 53.1063 69.86 54.3574 69.86 55.9008C69.8573 57.4446 68.6058 58.6954 67.062 58.6963ZM67.062 55.2988C66.9024 55.2995 66.7496 55.3634 66.6372 55.4766C66.5247 55.5898 66.4617 55.743 66.4621 55.9026C66.4626 56.0622 66.5265 56.2151 66.6396 56.3277C66.7527 56.4403 66.9058 56.5034 67.0655 56.5033C67.2251 56.503 67.378 56.4394 67.4908 56.3264C67.6036 56.2135 67.667 56.0604 67.667 55.9008C67.6665 55.7408 67.6025 55.5875 67.4891 55.4746C67.3756 55.3618 67.222 55.2985 67.062 55.2988ZM62.6406 68.815C61.0971 68.8137 59.8469 67.5613 59.8481 66.0179C59.849 64.4744 61.101 63.2243 62.6445 63.2247C64.1879 63.2252 65.4386 64.4767 65.4386 66.02C65.4363 67.564 64.1844 68.8141 62.6406 68.815ZM62.6406 65.4176C62.4808 65.4181 62.3278 65.482 62.2153 65.5953C62.1027 65.7087 62.0397 65.862 62.0403 66.0218C62.0408 66.1815 62.1047 66.3345 62.218 66.4471C62.3313 66.5596 62.4847 66.6226 62.6445 66.6221C62.804 66.6218 62.9569 66.5583 63.0696 66.4454C63.1823 66.3325 63.2456 66.1796 63.2456 66.02C63.2451 65.86 63.1811 65.7066 63.0677 65.5937C62.9542 65.4807 62.8006 65.4174 62.6406 65.4176ZM54.7559 72.0402C53.2124 72.0389 51.9623 70.7865 51.9636 69.2431C51.9644 67.6996 53.216 66.4495 54.7598 66.4499C56.3033 66.4503 57.5539 67.7014 57.5539 69.2452C57.5513 70.7887 56.2998 72.0393 54.7559 72.0402ZM54.7559 68.6428C54.5963 68.6435 54.4435 68.7075 54.3311 68.8208C54.2187 68.9341 54.1559 69.0874 54.1565 69.247C54.1597 69.4047 54.2247 69.5549 54.3375 69.6652C54.4503 69.7755 54.6018 69.8372 54.7596 69.8369C54.9174 69.8367 55.0687 69.7746 55.1812 69.6639C55.2936 69.5533 55.3582 69.403 55.361 69.2452C55.3605 69.0852 55.2965 68.9318 55.1831 68.8189C55.0696 68.7059 54.916 68.6426 54.7559 68.6428ZM70.5251 72.0402C68.9816 72.0389 67.7314 70.7865 67.7327 69.2431C67.7336 67.6996 68.9856 66.4495 70.5291 66.4499C72.0726 66.4503 73.3232 67.7014 73.3232 69.2452C73.3209 70.7891 72.069 72.0393 70.5251 72.0402ZM70.5251 68.6428C70.3655 68.6436 70.2128 68.7077 70.1004 68.8209C69.9881 68.9342 69.9252 69.0875 69.9257 69.247C69.9263 69.4065 69.9901 69.5593 70.1032 69.6719C70.2163 69.7844 70.3694 69.8475 70.529 69.8473C70.6885 69.847 70.8414 69.7835 70.9542 69.6706C71.0669 69.5578 71.1302 69.4048 71.1302 69.2452C71.1298 69.0851 71.0658 68.9317 70.9523 68.8188C70.8388 68.7058 70.6852 68.6425 70.5251 68.6428Z" fill="#00509E"/>
</g>
<defs>
<clipPath id="clip0_2074_7">
<rect width="50" height="50" fill="white" transform="translate(38 32)"/>
</clipPath>
</defs>
</svg>
