<svg width="126" height="126" viewBox="0 0 126 126" fill="none" xmlns="http://www.w3.org/2000/svg">
<path fill-rule="evenodd" clip-rule="evenodd" d="M126 11.5882V119.369C126 123.016 122.989 126 119.304 126H107.604C91.9244 126 61.1581 117.716 81.6016 111.975C93.1113 108.74 83.4867 103.629 75.8884 101.567C74.2519 101.067 73.8117 100.812 75.1749 100.436C78.1866 99.5709 81.0591 98.3937 83.7648 96.9386C97.6979 89.5805 107.182 75.054 107.182 58.3326C107.182 34.1821 87.3981 14.5961 62.9979 14.5961C38.6019 14.5961 18.8164 34.1821 18.8164 58.3326C18.8164 78.2233 32.2359 95.0105 50.598 100.317C50.5747 100.331 54.6851 101.516 60.3885 102.722C65.1797 103.732 62.7053 107.345 57.5248 108.624C42.6474 112.299 35.9935 110.866 24.4656 121.826C21.5786 124.573 16.7448 126 12.7471 126H6.69457C3.01177 126 0 123.016 0 119.369V6.62631C0 2.97997 3.01177 0 6.69457 0H14.0999H14.1878H111.816H111.901H119.304C122.989 0 126 2.97997 126 6.62631V11.5882Z" fill="#F3F4F7"/>
<circle cx="68.5" cy="62.5" r="2.5" fill="#FFE100"/>
<circle cx="57.5" cy="51.5" r="2.5" fill="#FFE100"/>
<path d="M68.6011 58.1851C68.0211 58.1837 67.4467 58.2973 66.9109 58.5193C66.3751 58.7412 65.8886 59.0671 65.4795 59.4782C64.8617 60.0958 64.4409 60.8827 64.2704 61.7395C64.0999 62.5962 64.1873 63.4843 64.5215 64.2913C64.8557 65.0984 65.4218 65.7882 66.1481 66.2736C66.8745 66.7589 67.7284 67.018 68.6019 67.018C69.4755 67.018 70.3294 66.7589 71.0558 66.2736C71.7821 65.7882 72.3481 65.0984 72.6824 64.2913C73.0166 63.4843 73.104 62.5962 72.9335 61.7395C72.763 60.8827 72.3422 60.0958 71.7244 59.4782C71.3151 59.0669 70.8283 58.7409 70.2922 58.5189C69.7561 58.297 69.1813 58.1835 68.6011 58.1851ZM69.8509 63.8504C69.5144 64.1724 69.0666 64.3521 68.6009 64.3519C68.1352 64.3517 67.6875 64.1718 67.3512 63.8496C67.1043 63.6024 66.9363 63.2876 66.8683 62.945C66.8003 62.6024 66.8354 62.2473 66.9691 61.9246C67.1029 61.6019 67.3293 61.3261 67.6198 61.1321C67.9103 60.9381 68.2517 60.8345 68.6011 60.8345C68.9504 60.8345 69.2919 60.9381 69.5823 61.1321C69.8728 61.3261 70.0992 61.6019 70.233 61.9246C70.3668 62.2473 70.4019 62.6024 70.3339 62.945C70.2659 63.2876 70.0978 63.6033 69.8509 63.8504ZM57.4512 55.8656C58.4723 55.8647 59.4616 55.5098 60.2504 54.8614C61.0392 54.2129 61.5788 53.311 61.7772 52.3094C61.9756 51.3077 61.8206 50.2682 61.3385 49.3681C60.8564 48.4679 60.0771 47.7627 59.1334 47.3727C58.1897 46.9826 57.1399 46.9319 56.163 47.2291C55.186 47.5262 54.3424 48.1529 53.7757 49.0024C53.209 49.8519 52.9544 50.8715 53.0552 51.8877C53.1561 52.9038 53.6062 53.8536 54.3287 54.5751C54.7385 54.9852 55.2254 55.3103 55.7612 55.5316C56.2971 55.7529 56.8714 55.867 57.4512 55.8656ZM56.2013 50.2028C56.4483 49.9556 56.763 49.7872 57.1057 49.7189C57.4484 49.6506 57.8036 49.6854 58.1265 49.819C58.4494 49.9525 58.7254 50.1789 58.9196 50.4693C59.1139 50.7598 59.2176 51.1013 59.2177 51.4507C59.2178 51.8001 59.1143 52.1417 58.9203 52.4323C58.7263 52.7229 58.4504 52.9494 58.1276 53.0833C57.8048 53.2171 57.4496 53.2521 57.1069 53.1841C56.7642 53.116 56.4493 52.9478 56.2022 52.7008C55.8718 52.3691 55.6862 51.9201 55.686 51.452C55.6858 50.9838 55.8711 50.5347 56.2013 50.2028ZM84.337 55.1289L81.7975 51.9623L82.4158 47.9522C82.5232 47.2784 82.3954 46.5881 82.0539 45.9973C81.7124 45.4066 81.1781 44.9513 80.5406 44.7079L76.7574 43.2417L75.292 39.4603C75.0439 38.8263 74.5877 38.2954 73.9982 37.9546C73.4087 37.6139 72.721 37.4836 72.0477 37.5851L68.0375 38.2034L64.8718 35.6631C64.3423 35.2341 63.6815 35 63.0001 35C62.3186 35 61.6578 35.2341 61.1284 35.6631L57.9617 38.2025L53.9533 37.5851C53.28 37.4833 52.5921 37.6134 52.0025 37.954C51.4128 38.2945 50.9564 38.8254 50.7081 39.4594L49.2418 43.2417L45.4595 44.7079C44.8259 44.9566 44.2953 45.4129 43.9547 46.0022C43.6141 46.5915 43.4835 47.279 43.5843 47.9522L44.2026 51.9623L41.6614 55.1289C41.2334 55.6585 41 56.3188 41 56.9997C41 57.6806 41.2334 58.3409 41.6614 58.8705L44.2026 62.0371L43.5843 66.0472C43.477 66.721 43.6048 67.4113 43.9462 68.0021C44.2877 68.5928 44.8221 69.0481 45.4595 69.2915L49.2418 70.7577L50.7072 74.5391C50.9553 75.1731 51.4116 75.704 52.001 76.0448C52.5905 76.3855 53.2783 76.5158 53.9516 76.4143L57.9617 75.7969L61.1275 78.3363C61.657 78.7657 62.3179 79 62.9996 79C63.6813 79 64.3423 78.7657 64.8718 78.3363L68.0375 75.7969L72.0459 76.4152C72.7194 76.5163 73.4072 76.3858 73.9969 76.0452C74.5866 75.7045 75.0432 75.1739 75.292 74.54L76.7583 70.7577L80.5388 69.2924C81.1723 69.043 81.7025 68.5865 82.0432 67.9972C82.3839 67.4079 82.515 66.7205 82.415 66.0472L81.7966 62.0379L84.337 58.8714C84.7659 58.342 85 57.6814 85 57.0001C85 56.3188 84.7659 55.6582 84.337 55.1289ZM82.2701 57.2143L79.3658 60.8349C79.2509 60.9782 79.1671 61.1439 79.1197 61.3213C79.0722 61.4988 79.0622 61.6842 79.0902 61.8657L79.7969 66.4508C79.8083 66.5277 79.7934 66.6062 79.7546 66.6736C79.7158 66.7409 79.6554 66.7932 79.5831 66.8218L75.2549 68.4992C75.0831 68.5657 74.9271 68.6672 74.7967 68.7974C74.6664 68.9276 74.5646 69.0835 74.498 69.2553L72.8206 73.5834C72.7917 73.6551 72.7394 73.7151 72.6723 73.7535C72.6051 73.792 72.527 73.8067 72.4505 73.7953L67.8644 73.0887C67.6828 73.0608 67.4974 73.071 67.3199 73.1186C67.1425 73.1662 66.9768 73.2502 66.8336 73.3652L63.2121 76.2694C63.152 76.3187 63.0768 76.3456 62.9992 76.3456C62.9216 76.3456 62.8463 76.3187 62.7863 76.2694L59.1648 73.3652C59.0215 73.2503 58.8558 73.1665 58.6784 73.119C58.5009 73.0716 58.3155 73.0616 58.134 73.0896L53.5479 73.7962C53.4709 73.8076 53.3923 73.7926 53.325 73.7536C53.2576 73.7146 53.2054 73.654 53.1769 73.5816L51.5013 69.2544C51.4346 69.0827 51.3329 68.9267 51.2025 68.7965C51.0722 68.6663 50.9161 68.5648 50.7443 68.4983L46.417 66.8209C46.3442 66.7933 46.2831 66.7414 46.244 66.674C46.2049 66.6066 46.1902 66.5278 46.2024 66.4508L46.909 61.8648C46.9371 61.6833 46.927 61.4979 46.8796 61.3205C46.8322 61.143 46.7483 60.9774 46.6334 60.834L43.7292 57.2126C43.6803 57.1521 43.6536 57.0766 43.6536 56.9988C43.6536 56.921 43.6803 56.8456 43.7292 56.7851L46.6334 53.1636C46.7485 53.0203 46.8325 52.8547 46.8801 52.6773C46.9277 52.4998 46.9378 52.3144 46.9099 52.1328L46.2033 47.5468C46.1923 47.4702 46.2073 47.3921 46.2461 47.3251C46.2849 47.2581 46.3451 47.2062 46.417 47.1776L50.7452 45.4993C50.9168 45.4328 51.0727 45.3311 51.2029 45.201C51.3331 45.0708 51.4347 44.9149 51.5013 44.7432L53.1778 40.4169C53.2063 40.3445 53.2585 40.2839 53.3258 40.2449C53.3932 40.2059 53.4718 40.1909 53.5488 40.2023L58.134 40.9089C58.3155 40.9369 58.5009 40.9269 58.6784 40.8795C58.8558 40.832 59.0215 40.7482 59.1648 40.6333L62.7863 37.7291C62.8464 37.6796 62.9218 37.6526 62.9996 37.6526C63.0775 37.6526 63.1529 37.6796 63.2129 37.7291L66.8345 40.6333C66.9778 40.7482 67.1434 40.832 67.3209 40.8795C67.4984 40.9269 67.6837 40.9369 67.8653 40.9089L72.4514 40.2023C72.5284 40.1902 72.6073 40.205 72.6748 40.244C72.7423 40.2831 72.7944 40.3441 72.8223 40.4169L74.4988 44.7441C74.5654 44.9158 74.667 45.0717 74.7972 45.2018C74.9274 45.332 75.0833 45.4336 75.2549 45.5002L79.5831 47.1776C79.6558 47.2054 79.7167 47.2573 79.7556 47.3247C79.7945 47.3921 79.8091 47.4708 79.7969 47.5477L79.0902 52.1337C79.0622 52.3152 79.0722 52.5006 79.1197 52.678C79.1671 52.8555 79.2509 53.0211 79.3658 53.1645L82.2701 56.7859C82.3191 56.8466 82.3458 56.9222 82.3458 57.0001C82.3458 57.0781 82.3191 57.1537 82.2701 57.2143ZM71.9797 48.0202C71.8566 47.8971 71.7105 47.7994 71.5497 47.7328C71.3889 47.6662 71.2166 47.6319 71.0425 47.6319C70.8684 47.6319 70.6961 47.6662 70.5353 47.7328C70.3745 47.7994 70.2284 47.8971 70.1053 48.0202L54.0205 64.1048C53.7719 64.3533 53.6322 64.6903 53.6321 65.0417C53.6321 65.2157 53.6663 65.388 53.7329 65.5488C53.7994 65.7096 53.897 65.8557 54.02 65.9787C54.143 66.1018 54.2891 66.1994 54.4498 66.2661C54.6106 66.3327 54.7829 66.367 54.9569 66.367C55.3083 66.3671 55.6454 66.2276 55.8939 65.9792L71.9788 49.8946C72.1019 49.7715 72.1996 49.6254 72.2662 49.4646C72.3329 49.3038 72.3672 49.1315 72.3672 48.9574C72.3672 48.7833 72.3329 48.611 72.2662 48.4502C72.1996 48.2894 72.1028 48.1433 71.9797 48.0202Z" fill="#00509E"/>
</svg>
