<svg width="126" height="126" viewBox="0 0 126 126" fill="none" xmlns="http://www.w3.org/2000/svg">
<path fill-rule="evenodd" clip-rule="evenodd" d="M126 11.5882V119.369C126 123.016 122.989 126 119.304 126H107.604C91.9244 126 61.1581 117.716 81.6016 111.975C93.1113 108.74 83.4867 103.629 75.8884 101.567C74.2519 101.067 73.8117 100.812 75.1749 100.436C78.1866 99.5709 81.0591 98.3937 83.7648 96.9386C97.6979 89.5805 107.182 75.054 107.182 58.3326C107.182 34.1821 87.3981 14.5961 62.9979 14.5961C38.6019 14.5961 18.8164 34.1821 18.8164 58.3326C18.8164 78.2233 32.2359 95.0105 50.598 100.317C50.5747 100.331 54.6851 101.516 60.3885 102.722C65.1797 103.732 62.7053 107.345 57.5248 108.624C42.6474 112.299 35.9935 110.866 24.4656 121.826C21.5786 124.573 16.7448 126 12.7471 126H6.69457C3.01177 126 0 123.016 0 119.369V6.62631C0 2.97997 3.01177 0 6.69457 0H14.0999H14.1878H111.816H111.901H119.304C122.989 0 126 2.97997 126 6.62631V11.5882Z" fill="#F3F4F7"/>
<path d="M84.6395 51.8703H82.5203V45.9702C82.5193 45.1161 82.1754 44.2972 81.5642 43.6932C80.9529 43.0892 80.1242 42.7495 79.2597 42.7484H74.3898V37.6679C74.3898 37.25 74.2904 36.8379 74.0997 36.4649C73.909 36.0919 73.6322 35.7684 73.2918 35.5204C72.9513 35.2724 72.5566 35.107 72.1396 35.0373C71.7225 34.9677 71.2947 34.9958 70.8907 35.1194L47.6937 42.7912C47.6819 42.7951 47.6708 42.8001 47.6591 42.8045C46.9123 42.944 46.2381 43.3365 45.7527 43.9144C45.2673 44.4923 45.0011 45.2193 45 45.9703V53.2241C45 53.5175 45.118 53.7989 45.328 54.0064C45.538 54.2139 45.8228 54.3305 46.1198 54.3305C46.4168 54.3305 46.7017 54.2139 46.9117 54.0064C47.1217 53.7989 47.2396 53.5175 47.2396 53.2241V45.9703C47.2399 45.7028 47.3476 45.4463 47.5391 45.2572C47.7305 45.068 47.9901 44.9616 48.2608 44.9613H79.2597C79.5305 44.9616 79.7901 45.068 79.9815 45.2571C80.173 45.4463 80.2807 45.7028 80.281 45.9703V51.8704H75.7612C74.8282 51.8671 73.9037 52.0459 73.0407 52.3964C72.1778 52.7469 71.3933 53.2623 70.7324 53.9129C70.0715 54.5636 69.5471 55.3368 69.1893 56.1882C68.8314 57.0396 68.6473 57.9524 68.6473 58.8742C68.6473 59.7961 68.8314 60.7089 69.1893 61.5603C69.5471 62.4116 70.0715 63.1848 70.7324 63.8355C71.3933 64.4862 72.1778 65.0016 73.0407 65.3521C73.9037 65.7026 74.8282 65.8814 75.7612 65.8781H80.2806V71.7782C80.2803 72.0457 80.1727 72.3021 79.9813 72.4912C79.7899 72.6804 79.5304 72.7868 79.2597 72.7872H66.2413C65.9443 72.7872 65.6595 72.9037 65.4495 73.1112C65.2395 73.3187 65.1215 73.6001 65.1215 73.8936C65.1215 74.187 65.2395 74.4684 65.4495 74.6759C65.6595 74.8834 65.9443 75 66.2413 75H79.2597C80.1242 74.999 80.9531 74.6593 81.5644 74.0553C82.1758 73.4513 82.5196 72.6323 82.5206 71.7781V65.878H84.6398C85.0005 65.8775 85.3462 65.7357 85.6012 65.4837C85.8561 65.2317 85.9996 64.8901 86 64.5338V53.2145C85.9996 52.8581 85.8561 52.5164 85.601 52.2645C85.346 52.0125 85.0002 51.8707 84.6395 51.8703ZM72.1502 42.7484H54.8781L71.5621 37.2306C71.6307 37.2111 71.7029 37.2076 71.7731 37.2203C71.8433 37.2331 71.9095 37.2619 71.9666 37.3043C72.0236 37.3467 72.0699 37.4016 72.1017 37.4647C72.1336 37.5278 72.1502 37.5974 72.1502 37.6679V42.7484ZM83.7603 63.6651H75.7612C75.1227 63.6679 74.4899 63.5459 73.8991 63.3064C73.3084 63.0668 72.7714 62.7144 72.3189 62.2692C71.8664 61.8241 71.5074 61.295 71.2624 60.7124C71.0174 60.1297 70.8913 59.5051 70.8913 58.8742C70.8913 58.2433 71.0174 57.6186 71.2624 57.0359C71.5074 56.4533 71.8664 55.9243 72.3189 55.4791C72.7714 55.0339 73.3084 54.6815 73.8991 54.4419C74.4899 54.2024 75.1227 54.0804 75.7612 54.0832H83.7603V63.6651Z" fill="#00509E"/>
<circle cx="52.5" cy="66.5" r="10.5" fill="#FFE100"/>
<path d="M52.5 54C45.6073 54 40 59.6074 40 66.5C40 73.3925 45.6073 79 52.5 79C59.3927 79 65 73.3927 65 66.5C65 59.6073 59.3926 54 52.5 54ZM52.5 76.7431C50.4741 76.7432 48.4937 76.1424 46.8092 75.0169C45.1247 73.8914 43.8118 72.2916 43.0365 70.4199C42.2612 68.5482 42.0584 66.4887 42.4536 64.5017C42.8488 62.5147 43.8244 60.6895 45.2569 59.257C46.6894 57.8244 48.5146 56.8488 50.5016 56.4536C52.4886 56.0584 54.5481 56.2612 56.4198 57.0365C58.2915 57.8118 59.8913 59.1247 61.0168 60.8091C62.1424 62.4936 62.7431 64.474 62.7431 66.5C62.7401 69.2157 61.6599 71.8193 59.7396 73.7396C57.8193 75.6599 55.2157 76.74 52.5 76.7431Z" fill="#00509E"/>
<path d="M57.887 65.7743H53.2259V61.113C53.2259 60.8178 53.1087 60.5347 52.8999 60.326C52.6912 60.1173 52.4081 60 52.113 60C51.8178 60 51.5347 60.1173 51.326 60.326C51.1173 60.5347 51 60.8178 51 61.113V66.8871C51.0001 67.1662 51.1051 67.4351 51.2942 67.6404C51.4833 67.8457 51.7427 67.9724 52.0209 67.9954C52.0515 67.9985 52.0822 68 52.113 68H57.887C58.1822 68 58.4653 67.8827 58.674 67.674C58.8827 67.4653 59 67.1822 59 66.887C59 66.5919 58.8827 66.3088 58.674 66.1001C58.4653 65.8913 58.1822 65.7741 57.887 65.7741V65.7743Z" fill="#00509E"/>
</svg>
