<svg width="50" height="50" viewBox="0 0 50 50" fill="none" xmlns="http://www.w3.org/2000/svg">
<g clip-path="url(#clip0_22_782)">
<circle cx="13" cy="41" r="7" fill="#FFE100"/>
<circle cx="38" cy="31" r="7" fill="#FFE100"/>
<path d="M28.4301 48.6531C28.2349 48.4578 28.1252 48.1929 28.1252 47.9166C28.1252 47.6404 28.2349 47.3755 28.4301 47.1802C29.3239 46.2864 30.6239 45.8333 32.2916 45.8333C33.9604 45.8333 35.2604 46.2864 36.1531 47.1802C36.3484 47.3755 36.4581 47.6404 36.4581 47.9166C36.4581 48.1929 36.3484 48.4578 36.1531 48.6531C35.9577 48.8484 35.6928 48.9582 35.4166 48.9582C35.1404 48.9582 34.8755 48.8484 34.6801 48.6531C34.1906 48.1646 33.3885 47.9166 32.2916 47.9166C31.1801 47.9166 30.3989 48.1573 29.9031 48.6531C29.7077 48.8484 29.4428 48.9581 29.1666 48.9581C28.8904 48.9581 28.6255 48.8484 28.4301 48.6531ZM43.5749 43.2864C43.8458 42.8812 44.2093 42.7083 44.7916 42.7083C45.3739 42.7083 45.7374 42.8812 46.0083 43.2864C46.0842 43.4003 46.1818 43.498 46.2955 43.5741C46.4092 43.6502 46.5367 43.7031 46.6709 43.7299C46.8051 43.7567 46.9432 43.7568 47.0774 43.7303C47.2116 43.7037 47.3393 43.6509 47.4531 43.575C47.5669 43.4991 47.6646 43.4015 47.7407 43.2878C47.8168 43.1741 47.8698 43.0465 47.8966 42.9123C47.9234 42.7782 47.9235 42.6401 47.8969 42.5059C47.8703 42.3717 47.8175 42.244 47.7416 42.1302C47.2843 41.4437 46.3999 40.625 44.7916 40.625C43.1833 40.625 42.2989 41.4437 41.8416 42.1302C41.7657 42.244 41.7129 42.3717 41.6863 42.5059C41.6598 42.6401 41.6599 42.7782 41.6866 42.9123C41.7134 43.0465 41.7664 43.1741 41.8425 43.2878C41.9186 43.4015 42.0163 43.4991 42.1301 43.575C42.36 43.7283 42.6414 43.784 42.9123 43.7299C43.0465 43.7031 43.174 43.6502 43.2877 43.5741C43.4014 43.498 43.499 43.4003 43.5749 43.2864ZM15.7426 32.5906L16.576 30.5791L15.7874 29.6625L11.6645 29.6614C10.8064 29.664 9.96083 29.4546 9.20299 29.052C8.44514 28.6493 7.7984 28.0659 7.32017 27.3533C6.84193 26.6407 6.54699 25.8211 6.4615 24.9672C6.37602 24.1133 6.50265 23.2515 6.83015 22.4583L10.7499 12.9969C11.061 12.2495 11.5424 11.5851 12.1556 11.0567C12.7689 10.5282 13.4971 10.1503 14.2822 9.95311C13.7984 9.14962 13.5423 8.22958 13.5416 7.29165C13.5416 4.41977 15.8781 2.08331 18.7499 2.08331C21.6218 2.08331 23.9583 4.41977 23.9583 7.29165C23.9583 9.5781 22.4676 11.5031 20.4156 12.2021L26.6947 17.176C26.8707 17.144 27.0519 17.1583 27.2206 17.2174C27.3894 17.2766 27.5398 17.3786 27.6572 17.5135L32.9979 23.7177C34.5237 22.7088 36.3391 22.2298 38.164 22.3544C39.989 22.479 41.7224 23.2004 43.097 24.4073C44.4716 25.6141 45.4111 27.2396 45.7708 29.0331C46.1305 30.8266 45.8904 32.6887 45.0874 34.3323L49.9999 32.2979V34.5531L33.5281 41.376C32.5041 41.8 31.5395 41.9552 30.6885 42.0917C29.8937 42.2187 29.2083 42.3292 28.5416 42.6208C27.8447 42.926 27.1062 43.4125 26.3249 43.9281C25.4687 44.4927 24.5833 45.0771 23.6781 45.4583C23.0072 45.7416 18.1385 47.7583 12.7239 50H7.27598L10.8906 48.5042C8.68848 47.7625 6.79785 46.1312 5.83848 43.8156C4.99214 41.7728 4.99199 39.4774 5.83805 37.4344C6.68411 35.3914 8.30708 33.7682 10.3499 32.9219C12.0601 32.2125 13.9585 32.0959 15.7426 32.5906ZM19.6312 39.2302L13.9406 41.5875C13.7502 41.6662 13.5408 41.6867 13.3387 41.6465C13.1367 41.6062 12.9512 41.5069 12.8056 41.3612C12.66 41.2155 12.5608 41.0299 12.5207 40.8278C12.4806 40.6257 12.5013 40.4163 12.5801 40.226L14.9385 34.5344C13.6739 34.2402 12.3489 34.3498 11.1499 34.8479C9.62892 35.4901 8.4236 36.7077 7.79694 38.2352C7.17029 39.7627 7.17315 41.476 7.80492 43.0014C8.43669 44.5268 9.64608 45.7404 11.1692 46.3775C12.6924 47.0145 14.4057 47.0234 15.9354 46.4021C17.2994 45.836 18.419 44.8052 19.0955 43.4924C19.772 42.1796 19.9618 40.6696 19.6312 39.2302ZM20.8864 36.4552C20.876 36.4351 20.8652 36.4153 20.8541 36.3958L20.1781 34.7635L18.0989 32.3479L17.6676 33.3885C18.9668 34.126 20.0423 35.2011 20.7801 36.5L20.8864 36.4552ZM32.7926 26.6708C31.8164 27.8458 31.3041 29.3375 31.3524 30.8643C31.4006 32.3911 32.0061 33.8475 33.0545 34.9585C34.1029 36.0695 35.5218 36.7583 37.0432 36.8949C38.5647 37.0315 40.0836 36.6064 41.3131 35.6999C42.5427 34.7934 43.3978 33.4682 43.7173 31.9743C44.0367 30.4805 43.7982 28.9214 43.0469 27.5914C42.2956 26.2613 41.0834 25.2523 39.6391 24.7547C38.1948 24.2572 36.6183 24.3055 35.2072 24.8906C34.9202 25.0121 34.6427 25.1548 34.377 25.3177L38.3916 29.9802C38.4843 30.0833 38.5554 30.2039 38.6008 30.3348C38.6463 30.4658 38.6652 30.6045 38.6563 30.7429C38.6475 30.8812 38.6111 31.0164 38.5493 31.1405C38.4876 31.2646 38.4016 31.3751 38.2966 31.4656C38.1916 31.5561 38.0695 31.6247 37.9376 31.6674C37.8058 31.7101 37.6667 31.726 37.5285 31.7143C37.3904 31.7026 37.256 31.6634 37.1332 31.599C37.0104 31.5347 36.9017 31.4465 36.8135 31.3396L32.7926 26.6708ZM30.4604 23.9625L26.1531 32.8583L26.6281 34.0042C26.945 34.7698 26.9448 35.63 26.6276 36.3956C26.3103 37.1611 25.702 37.7693 24.9364 38.0864C24.5456 38.2467 24.1264 38.3262 23.704 38.3199C23.2817 38.3136 22.865 38.2218 22.4791 38.05L21.5645 38.4291C22.105 40.3969 21.8998 42.495 20.9885 44.3208L22.8697 43.5385C23.5979 43.2312 24.3666 42.725 25.1801 42.1885C25.9999 41.6479 26.8479 41.0896 27.7072 40.7125C28.6166 40.3135 29.5031 40.1719 30.3593 40.0344C31.1687 39.9041 31.9333 39.7812 32.7312 39.451L34.9197 38.5448C32.7281 37.7989 30.852 36.1646 29.8958 33.8583C29.293 32.4007 29.1164 30.8019 29.3863 29.2478C29.6563 27.6937 30.3618 26.2481 31.4208 25.0791L30.4604 23.9625ZM25.0854 30.2812L27.6072 25.0739L23.9426 27.5229L25.0854 30.2812ZM23.4801 22.6031L19.3895 19.3573L17.7093 23.4146H20.1531C21.4197 23.4146 22.5531 24.1719 23.0395 25.3437L23.1291 25.5614L28.6562 21.8677L28.2676 21.4156C28.1635 21.6521 28.0385 21.8823 27.8708 22.0937C27.3555 22.7427 26.6039 23.1607 25.7808 23.2562C24.9577 23.3517 24.1303 23.1168 23.4801 22.6031ZM15.6249 7.29165C15.6249 9.01456 17.027 10.4166 18.7499 10.4166C20.4729 10.4166 21.8749 9.01456 21.8749 7.29165C21.8749 5.56873 20.4729 4.16665 18.7499 4.16665C17.027 4.16665 15.6249 5.56873 15.6249 7.29165ZM18.7604 27.5812C18.9664 27.5812 19.1678 27.6422 19.3391 27.7566C19.5104 27.871 19.644 28.0336 19.7229 28.2239L22.7791 35.6C22.8315 35.7264 22.9083 35.8412 23.005 35.9379C23.1018 36.0347 23.2167 36.1114 23.3431 36.1637C23.4695 36.2161 23.605 36.243 23.7419 36.2429C23.8787 36.2429 24.0142 36.2159 24.1406 36.1635C24.267 36.1111 24.3818 36.0344 24.4785 35.9376C24.5753 35.8408 24.652 35.7259 24.7043 35.5995C24.7566 35.4731 24.7835 35.3376 24.7835 35.2008C24.7835 35.0639 24.7565 34.9285 24.7041 34.8021L21.1156 26.1406C21.0369 25.9503 20.9036 25.7875 20.7324 25.673C20.5613 25.5584 20.3601 25.4971 20.1541 25.4969H11.6656C11.3893 25.4969 11.1243 25.3871 10.929 25.1918C10.7336 24.9964 10.6239 24.7315 10.6239 24.4552C10.6239 24.1789 10.7336 23.914 10.929 23.7186C11.1243 23.5233 11.3893 23.4135 11.6656 23.4135H15.4551L17.6937 18.0094L14.9031 15.7948C14.6866 15.6229 14.5473 15.3721 14.5157 15.0976C14.4842 14.823 14.563 14.5472 14.7348 14.3307C14.9067 14.1143 15.1575 13.9749 15.432 13.9434C15.7066 13.9118 15.9824 13.9906 16.1989 14.1625L24.776 20.9698C24.9931 21.1353 25.2665 21.209 25.5374 21.175C25.8083 21.141 26.055 21.002 26.2244 20.7879C26.3939 20.5739 26.4725 20.3018 26.4434 20.0303C26.4142 19.7589 26.2797 19.5097 26.0687 19.3364L17.4833 12.5364C17.262 12.3598 17.0178 12.214 16.7572 12.1031C15.9914 11.7873 15.1317 11.7881 14.3664 12.1052C13.6012 12.4223 12.9929 13.0299 12.6749 13.7948L8.75515 23.2562C8.43909 24.022 8.4397 24.8819 8.75684 25.6472C9.07398 26.4125 9.68175 27.0208 10.4468 27.3385C10.8374 27.5 11.2416 27.5885 11.6583 27.5781L18.7604 27.5812ZM15.4666 38.7L18.8343 37.3052C18.3353 36.5061 17.661 35.8311 16.8624 35.3312L15.4666 38.7Z" fill="#00509E"/>
</g>
<defs>
<clipPath id="clip0_22_782">
<rect width="50" height="50" fill="white"/>
</clipPath>
</defs>
</svg>
