<svg width="50" height="50" viewBox="0 0 50 50" fill="none" xmlns="http://www.w3.org/2000/svg">
<g clip-path="url(#clip0_18_9)">
<path d="M46.4084 9.64023L42.5974 7.097C41.4224 6.31139 40.0405 5.89235 38.6269 5.89301H11.872L9.58074 1.30437C9.45114 1.04579 9.25178 0.82863 9.0052 0.677437C8.75862 0.526245 8.47465 0.447055 8.18542 0.44882H5.55665C4.69753 0.44882 4.0011 1.14524 4.0011 2.00434V5.9374C2.67022 6.16216 1.68906 7.30453 1.66782 8.65407C1.67091 9.14453 1.80519 9.62522 2.05673 10.0463C1.34372 11.1197 1.63583 12.5678 2.70914 13.2808C3.09201 13.5351 3.54146 13.6707 4.0011 13.6705H7.4178L10.8454 15.7284C12.839 16.9278 15.1219 17.5608 17.4485 17.5592H21.7635L22.5359 17.8167C23.5697 18.1611 24.6522 18.3368 25.7418 18.337H25.7783V19.1147C25.7783 20.4033 26.823 21.448 28.1116 21.448H32.7782C33.6373 21.448 34.3337 20.7516 34.3337 19.8924V18.3369C35.0845 18.3341 35.8084 18.0576 36.3699 17.5592H44.009C46.3843 17.5282 48.3023 15.6102 48.3333 13.235C48.3353 12.5232 48.1604 11.8222 47.8245 11.1947C47.4885 10.5673 47.0019 10.0331 46.4084 9.64023ZM8.18934 2.00434L10.1337 5.89311H5.55665V2.00434H8.18934ZM3.22337 11.3373C3.22337 11.131 3.30531 10.9332 3.45116 10.7874C3.59702 10.6415 3.79483 10.5596 4.0011 10.5596H10.2232C10.4295 10.5596 10.6273 10.6415 10.7731 10.7874C10.919 10.9332 11.0009 11.131 11.0009 11.3373C11.0009 11.5436 10.919 11.7414 10.7731 11.8872C10.6273 12.0331 10.4295 12.115 10.2232 12.115H4.0011C3.79483 12.115 3.59702 12.0331 3.45116 11.8872C3.30531 11.7414 3.22337 11.5436 3.22337 11.3373ZM32.7782 19.8925H28.1116C27.9053 19.8925 27.7075 19.8106 27.5617 19.6648C27.4158 19.5189 27.3339 19.3211 27.3339 19.1148V18.3371H32.7782V19.8925ZM34.3337 16.7815H25.7418C24.8193 16.7815 23.9028 16.6331 23.0274 16.3421L18.3959 14.7975C18.2661 14.7536 18.1561 14.665 18.0854 14.5476C18.0148 14.4302 17.9881 14.2915 18.0101 14.1563C18.0321 14.021 18.1014 13.898 18.2057 13.809C18.3099 13.7201 18.4423 13.671 18.5794 13.6705H34.3336C35.1927 13.6705 35.8892 14.367 35.8892 15.2261C35.8893 16.0851 35.1928 16.7815 34.3337 16.7815ZM44.0091 16.0038H37.3344C37.4044 15.7503 37.4415 15.489 37.4448 15.2261C37.4448 13.5079 36.052 12.1151 34.3338 12.1151H18.5794C17.4025 12.1117 16.4457 13.0631 16.4423 14.24C16.4413 14.5872 16.5252 14.9294 16.6866 15.2368C16.848 15.5442 17.0821 15.8075 17.3685 16.0038C15.3529 15.9903 13.3778 15.4359 11.6496 14.3985L10.4099 13.6542C11.6926 13.568 12.6626 12.4583 12.5763 11.1755C12.4933 9.94155 11.4598 8.98793 10.2232 9.00406H4.0011C3.76849 9.00726 3.53773 9.0458 3.3167 9.11835C3.25519 8.97046 3.22347 8.81188 3.22337 8.6517C3.24133 7.99393 3.77105 7.46522 4.42893 7.44854H38.6269C39.7332 7.44801 40.8146 7.77608 41.7341 8.39113L42.6558 9.00397H37.4448C37.0153 9.00397 36.6671 9.35213 36.6671 9.78169C36.6671 10.2112 37.0153 10.5594 37.4448 10.5594H44.9837L45.5476 10.9358C45.9271 11.1871 46.2382 11.5287 46.453 11.93C46.6678 12.3313 46.7795 12.7797 46.778 13.2349C46.7582 14.7559 45.53 15.9841 44.0091 16.0038Z" fill="#00509E"/>
<path d="M3 34.5V45H4.5L5.5 43L7.5 41.5H10L11.5 42L13.5 44V46H34.5V45L35.5 43L37.5 41.5H40.5L42.5 43L44 46L47.5 45V42L46.5 39.5H45L42.5 38.5V36L37.5 34.5H11.5H3Z" fill="#FFE100"/>
<path d="M32.7783 9.00403H31.2228C30.7932 9.00403 30.445 9.35219 30.445 9.78174C30.445 10.2113 30.7932 10.5595 31.2228 10.5595H32.7783C32.9846 10.5595 33.1824 10.4775 33.3283 10.3317C33.4741 10.1858 33.556 9.98801 33.556 9.78174C33.5561 9.67961 33.5359 9.57847 33.4969 9.48411C33.4578 9.38975 33.4005 9.30401 33.3283 9.23179C33.2561 9.15957 33.1703 9.10228 33.076 9.0632C32.9816 9.02412 32.8805 9.00402 32.7783 9.00403ZM18.7786 9.00403H17.2231C17.0168 9.00403 16.819 9.08597 16.6732 9.23182C16.5273 9.37767 16.4454 9.57548 16.4454 9.78174C16.4454 9.98801 16.5273 10.1858 16.6732 10.3317C16.819 10.4775 17.0168 10.5595 17.2231 10.5595H18.7786C18.9849 10.5595 19.1827 10.4775 19.3286 10.3317C19.4744 10.1858 19.5564 9.98801 19.5564 9.78174C19.5564 9.67961 19.5363 9.57847 19.4972 9.48411C19.4581 9.38975 19.4008 9.30401 19.3286 9.23179C19.2564 9.15957 19.1706 9.10228 19.0763 9.0632C18.9819 9.02412 18.8808 9.00402 18.7786 9.00403ZM28.1118 9.00403H26.5562C26.1266 9.00403 25.7785 9.35219 25.7785 9.78174C25.7785 10.2113 26.1266 10.5595 26.5562 10.5595H28.1118C28.318 10.5595 28.5158 10.4775 28.6617 10.3317C28.8076 10.1858 28.8895 9.98801 28.8895 9.78174C28.8895 9.67961 28.8694 9.57847 28.8303 9.48411C28.7912 9.38975 28.7339 9.30401 28.6617 9.23179C28.5895 9.15957 28.5038 9.10228 28.4094 9.0632C28.315 9.02412 28.2139 9.00402 28.1118 9.00403ZM23.4452 9.00403H21.8897C21.4601 9.00403 21.1119 9.35219 21.1119 9.78174C21.1119 10.2113 21.4601 10.5595 21.8897 10.5595H23.4452C23.6515 10.5595 23.8493 10.4775 23.9951 10.3317C24.141 10.1858 24.2229 9.98801 24.2229 9.78174C24.2229 9.67961 24.2028 9.57847 24.1638 9.48411C24.1247 9.38975 24.0674 9.30401 23.9952 9.23179C23.9229 9.15957 23.8372 9.10228 23.7428 9.0632C23.6485 9.02412 23.5473 9.00402 23.4452 9.00403ZM46.456 35.0945L36.2355 33.049L27.9173 26.1201C27.2185 25.5379 26.3381 25.2185 25.4285 25.2172H24.7036L23.7928 23.3957C23.6002 23.0073 23.3026 22.6807 22.9337 22.4528C22.5649 22.2249 22.1396 22.1048 21.7061 22.1062H20.5178C20.0842 22.1048 19.6589 22.2249 19.2901 22.4528C18.9213 22.6807 18.6237 23.0073 18.431 23.3957L17.5202 25.2172H16.181C15.15 25.2196 14.1615 25.6284 13.4301 26.355L6.79033 32.9946H4.00125C2.71266 32.9946 1.66797 34.0393 1.66797 35.3279V43.8831C1.66797 45.6012 3.06083 46.9941 4.77898 46.9941H5.05122C5.90579 49.4209 8.56591 50.6956 10.9928 49.8411C11.6501 49.6096 12.247 49.2337 12.7398 48.741C13.2325 48.2483 13.6084 47.6513 13.8398 46.9941H34.606C35.4606 49.4209 38.1207 50.6956 40.5476 49.8411C41.2049 49.6096 41.8018 49.2337 42.2946 48.741C42.7873 48.2483 43.1632 47.6513 43.3946 46.9941H46.0002C47.2888 46.9941 48.3335 45.9494 48.3335 44.6608V37.3811C48.3288 36.2703 47.5447 35.3154 46.456 35.0945ZM46.778 37.3811V38.4388H44.4447C44.2384 38.4388 44.0406 38.3569 43.8948 38.211C43.7489 38.0652 43.667 37.8674 43.667 37.6611V36.122L46.1488 36.619C46.3253 36.6543 46.4842 36.7494 46.5988 36.8882C46.7134 37.0271 46.7767 37.2011 46.778 37.3811ZM26.9218 27.3171L33.7396 32.9946H21.8897V26.7726H25.4286C25.9746 26.7743 26.5029 26.9669 26.9218 27.3171ZM19.8224 24.0933C19.8863 23.9635 19.9854 23.8542 20.1083 23.7779C20.2312 23.7016 20.3731 23.6613 20.5178 23.6617H21.7062C21.8507 23.6612 21.9924 23.7013 22.1154 23.7773C22.2383 23.8533 22.3374 23.9623 22.4015 24.0918L22.9646 25.2172H19.2593L19.8224 24.0933ZM14.5336 27.4563C14.9715 27.0207 15.5633 26.7751 16.181 26.7726H20.3342V32.9946H8.98981L14.5336 27.4563ZM4.00125 34.5501H4.77898V36.1056C4.77898 36.3118 4.69704 36.5097 4.55118 36.6555C4.40533 36.8014 4.20751 36.8833 4.00125 36.8833H3.22352V35.3278C3.22352 35.2256 3.24364 35.1245 3.28272 35.0302C3.32181 34.9358 3.3791 34.8501 3.45132 34.7779C3.52354 34.7057 3.60927 34.6484 3.70363 34.6093C3.79799 34.5702 3.89912 34.5501 4.00125 34.5501ZM9.44553 48.5496C7.72738 48.5496 6.33453 47.1567 6.33453 45.4386C6.33453 43.7205 7.72738 42.3277 9.44553 42.3277C11.1637 42.3277 12.5565 43.7205 12.5565 45.4386C12.5566 47.1567 11.1638 48.5496 9.44553 48.5496ZM39.0004 48.5496C37.2823 48.5496 35.8894 47.1567 35.8894 45.4386C35.8894 43.7205 37.2823 42.3277 39.0004 42.3277C40.7186 42.3277 42.1114 43.7205 42.1114 45.4386C42.1114 47.1567 40.7186 48.5496 39.0004 48.5496ZM46.0003 45.4385H43.667C43.667 42.8613 41.5777 40.7721 39.0004 40.7721C36.4232 40.7721 34.3339 42.8613 34.3339 45.4385H14.1121C14.1121 42.8613 12.0228 40.7721 9.44553 40.7721C6.86826 40.7721 4.77898 42.8613 4.77898 45.4385C3.91986 45.4385 3.22343 44.7421 3.22343 43.883V38.4388H4.00116C5.28975 38.4388 6.33443 37.3941 6.33443 36.1056V34.5501H35.8115L42.1113 35.8108V37.6611C42.1113 38.9497 43.156 39.9943 44.4446 39.9943H46.7779V44.6608C46.7779 44.7629 46.7578 44.8641 46.7188 44.9584C46.6797 45.0528 46.6224 45.1385 46.5502 45.2108C46.478 45.283 46.3922 45.3403 46.2979 45.3794C46.2035 45.4184 46.1024 45.4385 46.0003 45.4385Z" fill="#00509E"/>
<path d="M31.2227 39.2166H29.6672V37.6611C29.6672 36.802 28.9707 36.1056 28.1116 36.1056H26.5561C25.697 36.1056 25.0005 36.802 25.0005 37.6611V39.2166H23.445V37.6611C23.445 36.802 22.7486 36.1056 21.8894 36.1056H20.3339C19.4748 36.1056 18.7783 36.802 18.7783 37.6611V39.2166H17.2228C16.3637 39.2166 15.6672 39.9131 15.6672 40.7722V42.3277C15.6672 43.1868 16.3637 43.8832 17.2228 43.8832H18.7783C19.6375 43.8832 20.3339 43.1868 20.3339 42.3277V40.7721H21.8894V42.3276C21.8894 43.1867 22.5859 43.8831 23.445 43.8831H25.0005C25.8597 43.8831 26.5561 43.1867 26.5561 42.3276V40.7721H28.1116V42.3276C28.1116 43.1867 28.8081 43.8831 29.6672 43.8831H31.2227C32.0819 43.8831 32.7783 43.1867 32.7783 42.3276V40.7721C32.7782 39.9131 32.0818 39.2166 31.2227 39.2166ZM17.2231 42.3276V40.7721H18.7786V42.3276H17.2231ZM20.3341 37.6611H21.8896V39.2166H20.3341V37.6611ZM23.4451 42.3276V40.7721H25.0006V42.3276H23.4451ZM26.5562 37.6611H28.1117V39.2166H26.5562V37.6611ZM29.6672 42.3276V40.7721H31.2227V42.3276H29.6672Z" fill="#00509E"/>
</g>
<defs>
<clipPath id="clip0_18_9">
<rect width="50" height="50" fill="white"/>
</clipPath>
</defs>
</svg>
