<svg width="50" height="50" viewBox="0 0 50 50" fill="none" xmlns="http://www.w3.org/2000/svg">
<path d="M41.8254 32.3126L48.3254 25.8125C48.5409 25.597 48.662 25.3047 48.662 25C48.662 24.6953 48.5409 24.403 48.3254 24.1875L41.8254 17.6874C41.6647 17.5262 41.4599 17.4164 41.2367 17.3717C41.0136 17.3271 40.7822 17.3497 40.572 17.4368C40.3617 17.5238 40.182 17.6713 40.0557 17.8606C39.9293 18.0499 39.8621 18.2724 39.8623 18.4999L39.864 23.8511L2.01249 23.8495V26.1505L39.864 26.1489L39.8623 31.5001C39.8621 31.7276 39.9293 31.9501 40.0557 32.1394C40.182 32.3287 40.3617 32.4762 40.572 32.5632C40.7822 32.6503 41.0136 32.6729 41.2367 32.6283C41.4599 32.5836 41.6647 32.4738 41.8254 32.3126Z" fill="#DFE0E3"/>
</svg>
