<svg width="50" height="50" viewBox="0 0 50 50" fill="none" xmlns="http://www.w3.org/2000/svg">
<path d="M8.17463 17.6874L1.67457 24.1875C1.45908 24.403 1.33802 24.6953 1.33802 25C1.33802 25.3047 1.45908 25.597 1.67457 25.8125L8.17463 32.3126C8.33526 32.4738 8.54012 32.5836 8.76327 32.6283C8.98641 32.6729 9.21778 32.6503 9.42804 32.5632C9.6383 32.4762 9.81799 32.3287 9.94432 32.1394C10.0707 31.9501 10.1379 31.7276 10.1377 31.5001L10.136 26.1489L47.9875 26.1505L47.9875 23.8495L10.136 23.8511L10.1377 18.4999C10.1379 18.2724 10.0707 18.0499 9.94432 17.8606C9.81799 17.6713 9.6383 17.5238 9.42804 17.4368C9.21778 17.3497 8.98641 17.3271 8.76327 17.3717C8.54012 17.4164 8.33525 17.5262 8.17463 17.6874Z" fill="#DFE0E3"/>
</svg>
