<svg width="50" height="50" viewBox="0 0 50 50" fill="none" xmlns="http://www.w3.org/2000/svg">
<g clip-path="url(#clip0_22_775)">
<path d="M1.5 29.5L4.5 39.5L9.5 40L15.5 41L21 43L25 45.5L27 44L30.5 41.5L38 40L45.5 39.5L48 29.5L44 30.5L37.5 32L32 35.5L28 40L25 43.5L24 43L18.5 35.5L12 31.5L1.5 29.5Z" fill="#FFE100"/>
<path d="M49.3164 43.2953L29.5171 46.7656V46.9539C29.5171 48.6335 28.316 50 26.8395 50H23.1979C21.7214 50 20.5202 48.6336 20.5202 46.9539V46.7658L0.681285 43.2954C0.470437 43.2577 0.281323 43.1265 0.155379 42.9304C0.029435 42.7344 -0.0230678 42.4896 0.00937452 42.2496C0.0418169 42.0097 0.156559 41.7941 0.328459 41.6502C0.500359 41.5063 0.715398 41.4457 0.926459 41.4818L21.4493 45.072C21.6397 45.1053 21.8133 45.2151 21.9387 45.3814C22.0642 45.5477 22.1332 45.7596 22.1332 45.9788V46.9539C22.1332 47.6217 22.6108 48.1651 23.1979 48.1651H26.8395C27.4265 48.1651 27.9041 47.6218 27.9041 46.9539V45.9788C27.9042 45.7597 27.9731 45.5478 28.0985 45.3815C28.2239 45.2152 28.3975 45.1055 28.5878 45.0721L49.0709 41.482C49.5098 41.4034 49.9228 41.748 49.9907 42.2489C50.0233 42.4894 49.9705 42.7347 49.844 42.931C49.7176 43.1272 49.5278 43.2582 49.3164 43.2953ZM0.576944 29.6021C0.535425 29.464 0.523473 29.3166 0.54208 29.1721C0.560688 29.0277 0.609318 28.8904 0.683933 28.7716C0.758547 28.6529 0.856993 28.556 0.971095 28.4892C1.0852 28.4224 1.21166 28.3876 1.33999 28.3875C5.85808 28.3875 10.4913 29.5405 14.3863 31.634C18.9804 34.1033 22.5443 37.7764 24.9988 42.566C27.4534 37.7763 31.0172 34.1033 35.6114 31.634C39.5064 29.5405 44.1396 28.3875 48.6577 28.3875C48.786 28.3875 48.9125 28.4224 49.0266 28.4891C49.1408 28.5559 49.2392 28.6527 49.3139 28.7715C49.3885 28.8903 49.4371 29.0276 49.4557 29.1721C49.4743 29.3165 49.4623 29.464 49.4207 29.6021L46.2647 40.0898C46.2103 40.2707 46.1074 40.4278 45.9706 40.539C45.8338 40.6502 45.6699 40.71 45.5018 40.7101C37.2296 40.7101 30.1122 42.7439 25.4605 46.437C25.4581 46.4389 25.4556 46.44 25.4533 46.4418C25.4227 46.4657 25.3907 46.4871 25.3575 46.506C25.3524 46.5087 25.3473 46.5114 25.3422 46.514C25.3112 46.5306 25.2796 46.5449 25.2474 46.5568C25.243 46.5584 25.2387 46.5604 25.2342 46.5619C25.1925 46.5761 25.1499 46.5865 25.1067 46.5929C25.0709 46.5984 25.0349 46.6021 24.9988 46.6021C24.9627 46.6021 24.9268 46.5984 24.891 46.5929C24.8478 46.5865 24.8051 46.5761 24.7634 46.5619C24.759 46.5604 24.7547 46.5584 24.7502 46.5568C24.7179 46.5448 24.6862 46.5305 24.6555 46.514C24.6504 46.5114 24.6453 46.5087 24.6402 46.506C24.607 46.4871 24.575 46.4657 24.5444 46.4418C24.5421 46.44 24.5394 46.4389 24.5371 46.437C19.8854 42.7439 12.7679 40.7101 4.49581 40.7101C4.32766 40.71 4.16373 40.6502 4.02693 40.539C3.89014 40.4278 3.78732 40.2707 3.73286 40.0898L0.576944 29.6021ZM5.07326 38.8785C10.2159 38.9365 14.9288 39.771 18.9148 41.2939C14.3914 37.8596 8.88566 35.1182 3.89426 34.9606L5.07326 38.8785ZM46.1033 34.9605C41.1119 35.1181 35.6062 37.8595 31.0827 41.2938C35.0687 39.7708 39.7817 38.9365 44.9243 38.8784L46.1033 34.9605ZM26.9338 42.4875C32.2843 37.5042 39.7822 33.1176 46.5535 33.1176C46.5881 33.1176 46.6219 33.1209 46.6554 33.1257L47.5205 30.2507C43.0219 30.4679 32.7928 32.156 26.9338 42.4875ZM2.47695 30.2507L3.34212 33.1257C3.37587 33.1206 3.40988 33.1179 3.44394 33.1176C10.2153 33.1176 17.7132 37.5042 23.0637 42.4875C17.2047 32.156 6.97558 30.4679 2.47695 30.2507ZM4.38955 6.74258C4.38957 6.5403 4.44835 6.3437 4.55676 6.18336C4.66517 6.02302 4.81712 5.90793 4.98898 5.856L24.2668 0.0307392C24.4025 -0.0102464 24.5452 -0.0102464 24.6809 0.0307392L43.9586 5.856C44.1305 5.90792 44.2825 6.023 44.3909 6.18335C44.4993 6.34369 44.558 6.5403 44.558 6.74258C44.558 6.94486 44.4993 7.14147 44.3909 7.30182C44.2825 7.46216 44.1305 7.57725 43.9586 7.62917L43.3918 7.8005V17.534L45.2045 18.7246C45.3271 18.8052 45.4289 18.921 45.4997 19.0604C45.5705 19.1999 45.6077 19.3581 45.6077 19.5191V27.2076C45.6077 27.3781 45.5659 27.5451 45.4871 27.6901C45.4083 27.8351 45.2955 27.9522 45.1614 28.0283C45.0274 28.1046 44.8772 28.1369 44.728 28.1214C44.5787 28.1059 44.4362 28.0433 44.3164 27.9407L42.5853 26.4599L40.8539 27.9407C40.7342 28.0432 40.5917 28.1056 40.4424 28.1211C40.2932 28.1365 40.1431 28.1044 40.009 28.0282C39.875 27.9521 39.7622 27.835 39.6833 27.69C39.6045 27.545 39.5628 27.3779 39.5627 27.2075V19.519C39.5627 19.358 39.6 19.1998 39.6708 19.0603C39.7416 18.9209 39.8434 18.805 39.966 18.7245L41.7786 17.534V8.28777L38.4621 9.28996V20.5637C38.4621 20.7784 38.3959 20.9863 38.275 21.1512C38.1542 21.3161 37.9863 21.4275 37.8006 21.4662C35.556 21.933 33.7052 22.3401 32.218 22.6672C28.382 23.5107 26.4277 23.9326 24.4737 23.9326C22.5195 23.9326 20.5652 23.5107 16.7293 22.6672C15.2422 22.3401 13.3914 21.9331 11.1467 21.4662C10.961 21.4275 10.7932 21.3161 10.6723 21.1512C10.5515 20.9863 10.4853 20.7784 10.4852 20.5637V9.28996L4.98888 7.62917C4.81704 7.57721 4.66511 7.46211 4.55672 7.30178C4.44833 7.14144 4.38956 6.94485 4.38955 6.74258ZM43.9948 20.0487L42.5855 19.123L41.176 20.0488V25.3697L42.1009 24.5788C42.2406 24.4592 42.4107 24.3945 42.5856 24.3945C42.7604 24.3945 42.9306 24.4592 43.0703 24.5788L43.9949 25.3697L43.9948 20.0487ZM36.8493 9.77746L24.681 13.4543C24.5453 13.4953 24.4025 13.4953 24.2668 13.4543L12.0984 9.77746V19.7996C14.0557 20.2104 15.6934 20.5706 17.0356 20.8658C24.474 22.5017 24.4741 22.5015 31.9121 20.8658C33.2542 20.5706 34.892 20.2104 36.8493 19.7996V9.77746ZM8.33745 6.74258L24.4738 11.6185L40.6101 6.74258L24.4739 1.86653L8.33745 6.74258Z" fill="#00509E"/>
</g>
<defs>
<clipPath id="clip0_22_775">
<rect width="50" height="50" fill="white"/>
</clipPath>
</defs>
</svg>
