<svg width="40" height="40" viewBox="0 0 40 40" fill="none" xmlns="http://www.w3.org/2000/svg">
<g clip-path="url(#clip0_59_5535)">
<path d="M0 5C0 2.23858 2.23858 0 5 0H40V40H0V5Z" fill="#FFE100"/>
<path d="M28.7996 16H30.3996V19.2H28.7996V16ZM9.59961 16H11.1996V19.2H9.59961V16ZM23.1996 23.2H24.7996V24.8H23.1996V23.2ZM15.1996 23.2H16.7996V24.8H15.1996V23.2Z" fill="#04020F"/>
<path d="M24 10.4H16C14.9395 10.4013 13.9228 10.8231 13.173 11.573C12.4231 12.3228 12.0013 13.3395 12 14.4V25.6C12 26.0243 12.1686 26.4313 12.4686 26.7314C12.7687 27.0314 13.1757 27.2 13.6 27.2V29.6H15.2V27.2H24.8V29.6H26.4V27.2C26.8242 27.1994 27.2308 27.0306 27.5307 26.7307C27.8306 26.4307 27.9994 26.0241 28 25.6V14.4C27.9987 13.3395 27.5769 12.3228 26.827 11.573C26.0772 10.8231 25.0605 10.4013 24 10.4ZM26.4 15.2V20H13.6V15.2H26.4ZM16 12H24C24.4947 12.0015 24.9769 12.1561 25.3803 12.4425C25.7836 12.729 26.0884 13.1333 26.2528 13.6H13.7472C13.9116 13.1333 14.2164 12.729 14.6197 12.4425C15.0231 12.1561 15.5053 12.0015 16 12ZM13.6 25.6V21.6H26.4008L26.4016 25.6H13.6Z" fill="#04020F"/>
</g>
<defs>
<clipPath id="clip0_59_5535">
<rect width="40" height="40" fill="white"/>
</clipPath>
</defs>
</svg>
