<svg width="30" height="30" viewBox="0 0 30 30" fill="none" xmlns="http://www.w3.org/2000/svg">
<g clip-path="url(#clip0_2016_11)">
<path d="M26.2941 29.1176H3.70585C2.10585 29.1176 0.882324 27.8887 0.882324 26.2815V5.48319C0.882324 3.87605 1.91762 2.64706 3.23527 2.64706H4.64703V4.53782H3.23527C3.04703 4.53782 2.76468 4.91597 2.76468 5.48319V26.2815C2.76468 26.8487 3.14115 27.2269 3.70585 27.2269H26.2941C26.8588 27.2269 27.2353 26.8487 27.2353 26.2815V5.48319C27.2353 4.91597 26.9529 4.53782 26.7647 4.53782H25.3529V2.64706H26.7647C28.0823 2.64706 29.1176 3.87605 29.1176 5.48319V26.2815C29.1176 27.8887 27.8941 29.1176 26.2941 29.1176Z" fill="#00509E"/>
<path d="M7.3981 6.38009C6.82797 6.38009 6.44788 6.01358 6.44788 5.4638V1.79864C6.44788 1.24887 6.82797 0.882355 7.3981 0.882355C7.96824 0.882355 8.34833 1.24887 8.34833 1.79864V5.4638C8.34833 6.01358 7.96824 6.38009 7.3981 6.38009ZM22.6017 6.38009C22.0316 6.38009 21.6515 6.01358 21.6515 5.4638V1.79864C21.6515 1.24887 22.0316 0.882355 22.6017 0.882355C23.1719 0.882355 23.552 1.24887 23.552 1.79864V5.4638C23.552 6.01358 23.1719 6.38009 22.6017 6.38009ZM10.2488 2.71493H19.751V4.54751H10.2488V2.71493ZM2.64697 8.21267H27.3529V10.0453H2.64697V8.21267ZM23.552 11.8778H25.4524V13.7104H23.552V11.8778ZM19.751 11.8778H21.6515V13.7104H19.751V11.8778ZM15.9501 11.8778H17.8506V13.7104H15.9501V11.8778ZM12.1492 11.8778H14.0497V13.7104H12.1492V11.8778ZM8.34833 11.8778H10.2488V13.7104H8.34833V11.8778ZM23.552 15.543H25.4524V17.3756H23.552V15.543ZM19.751 15.543H21.6515V17.3756H19.751V15.543ZM15.9501 15.543H17.8506V17.3756H15.9501V15.543ZM12.1492 15.543H14.0497V17.3756H12.1492V15.543ZM8.34833 15.543H10.2488V17.3756H8.34833V15.543ZM4.54743 15.543H6.44788V17.3756H4.54743V15.543ZM23.552 19.2081H25.4524V21.0407H23.552V19.2081ZM19.751 19.2081H21.6515V21.0407H19.751V19.2081ZM15.9501 19.2081H17.8506V21.0407H15.9501V19.2081ZM12.1492 19.2081H14.0497V21.0407H12.1492V19.2081ZM8.34833 19.2081H10.2488V21.0407H8.34833V19.2081ZM4.54743 19.2081H6.44788V21.0407H4.54743V19.2081ZM19.751 22.8733H21.6515V24.7059H19.751V22.8733ZM15.9501 22.8733H17.8506V24.7059H15.9501V22.8733ZM12.1492 22.8733H14.0497V24.7059H12.1492V22.8733ZM8.34833 22.8733H10.2488V24.7059H8.34833V22.8733ZM4.54743 22.8733H6.44788V24.7059H4.54743V22.8733Z" fill="#00509E"/>
</g>
<defs>
<clipPath id="clip0_2016_11">
<rect width="30" height="30" fill="white"/>
</clipPath>
</defs>
</svg>
