<svg width="50" height="50" viewBox="0 0 50 50" fill="none" xmlns="http://www.w3.org/2000/svg">
<path d="M46.6395 19.8703H44.5203V13.9702C44.5193 13.1161 44.1754 12.2972 43.5642 11.6932C42.9529 11.0892 42.1242 10.7495 41.2597 10.7484H36.3898V5.66792C36.3898 5.25001 36.2904 4.83794 36.0997 4.46492C35.909 4.09191 35.6322 3.76838 35.2918 3.52041C34.9513 3.27244 34.5566 3.10696 34.1396 3.03731C33.7225 2.96766 33.2947 2.99579 32.8907 3.11943L9.6937 10.7912C9.68185 10.7951 9.67081 10.8001 9.65914 10.8045C8.9123 10.944 8.23809 11.3365 7.75269 11.9144C7.26729 12.4923 7.00111 13.2193 7 13.9703V21.2241C7 21.5175 7.11798 21.7989 7.32799 22.0064C7.538 22.2139 7.82283 22.3305 8.11982 22.3305C8.41682 22.3305 8.70165 22.2139 8.91166 22.0064C9.12167 21.7989 9.23965 21.5175 9.23965 21.2241V13.9703C9.23993 13.7028 9.34761 13.4463 9.53906 13.2572C9.73051 13.068 9.99009 12.9616 10.2608 12.9613H41.2597C41.5305 12.9616 41.7901 13.068 41.9815 13.2571C42.173 13.4463 42.2807 13.7028 42.281 13.9703V19.8704H37.7612C36.8282 19.8671 35.9037 20.0459 35.0407 20.3964C34.1778 20.7469 33.3933 21.2623 32.7324 21.9129C32.0715 22.5636 31.5471 23.3368 31.1893 24.1882C30.8314 25.0396 30.6473 25.9524 30.6473 26.8742C30.6473 27.7961 30.8314 28.7089 31.1893 29.5603C31.5471 30.4116 32.0715 31.1848 32.7324 31.8355C33.3933 32.4862 34.1778 33.0016 35.0407 33.3521C35.9037 33.7026 36.8282 33.8814 37.7612 33.8781H42.2806V39.7782C42.2803 40.0457 42.1727 40.3021 41.9813 40.4912C41.7899 40.6804 41.5304 40.7868 41.2597 40.7872H28.2413C27.9443 40.7872 27.6595 40.9037 27.4495 41.1112C27.2395 41.3187 27.1215 41.6001 27.1215 41.8936C27.1215 42.187 27.2395 42.4684 27.4495 42.6759C27.6595 42.8834 27.9443 43 28.2413 43H41.2597C42.1242 42.999 42.9531 42.6593 43.5644 42.0553C44.1758 41.4513 44.5196 40.6323 44.5206 39.7781V33.878H46.6398C47.0005 33.8775 47.3462 33.7357 47.6012 33.4837C47.8561 33.2317 47.9996 32.8901 48 32.5338V21.2145C47.9996 20.8581 47.8561 20.5164 47.601 20.2645C47.346 20.0125 47.0002 19.8707 46.6395 19.8703ZM34.1502 10.7484H16.8781L33.5621 5.23056C33.6307 5.21105 33.7029 5.20755 33.7731 5.22035C33.8433 5.23315 33.9095 5.26188 33.9666 5.30429C34.0236 5.34671 34.0699 5.40163 34.1017 5.46474C34.1336 5.52784 34.1502 5.5974 34.1502 5.66792V10.7484ZM45.7603 31.6651H37.7612C37.1227 31.6679 36.4899 31.5459 35.8991 31.3064C35.3084 31.0668 34.7714 30.7144 34.3189 30.2692C33.8664 29.8241 33.5074 29.295 33.2624 28.7124C33.0174 28.1297 32.8913 27.5051 32.8913 26.8742C32.8913 26.2433 33.0174 25.6186 33.2624 25.0359C33.5074 24.4533 33.8664 23.9243 34.3189 23.4791C34.7714 23.0339 35.3084 22.6815 35.8991 22.4419C36.4899 22.2024 37.1227 22.0804 37.7612 22.0832H45.7603V31.6651Z" fill="#00509E"/>
<circle cx="14.5" cy="34.5" r="10.5" fill="#FFE100"/>
<path d="M14.5 22C7.60735 22 2 27.6074 2 34.5C2 41.3925 7.60735 47 14.5 47C21.3927 47 27 41.3927 27 34.5C27 27.6073 21.3926 22 14.5 22ZM14.5 44.7431C12.4741 44.7432 10.4937 44.1424 8.80922 43.0169C7.12472 41.8914 5.81181 40.2916 5.03652 38.4199C4.26122 36.5482 4.05836 34.4887 4.45359 32.5017C4.84881 30.5147 5.82437 28.6895 7.2569 27.257C8.68943 25.8244 10.5146 24.8488 12.5016 24.4536C14.4886 24.0584 16.5481 24.2612 18.4198 25.0365C20.2915 25.8118 21.8913 27.1247 23.0168 28.8091C24.1424 30.4936 24.7431 32.474 24.7431 34.5C24.7401 37.2157 23.6599 39.8193 21.7396 41.7396C19.8193 43.6599 17.2157 44.74 14.5 44.7431Z" fill="#00509E"/>
<path d="M19.887 33.7743H15.2259V29.113C15.2259 28.8178 15.1087 28.5347 14.8999 28.326C14.6912 28.1173 14.4081 28 14.113 28C13.8178 28 13.5347 28.1173 13.326 28.326C13.1173 28.5347 13 28.8178 13 29.113V34.8871C13.0001 35.1662 13.1051 35.4351 13.2942 35.6404C13.4833 35.8457 13.7427 35.9724 14.0209 35.9954C14.0515 35.9985 14.0822 36 14.113 36H19.887C20.1822 36 20.4653 35.8827 20.674 35.674C20.8827 35.4653 21 35.1822 21 34.887C21 34.5919 20.8827 34.3088 20.674 34.1001C20.4653 33.8913 20.1822 33.7741 19.887 33.7741V33.7743Z" fill="#00509E"/>
</svg>
