<svg width="30" height="30" viewBox="0 0 30 30" fill="none" xmlns="http://www.w3.org/2000/svg">
<g clip-path="url(#clip0_2016_15)">
<path fill-rule="evenodd" clip-rule="evenodd" d="M14.2857 0C13.7174 0 13.1723 0.225765 12.7705 0.627628C12.3686 1.02949 12.1429 1.57454 12.1429 2.14286V7.91286L8.22429 10.0907C8.1131 10.1525 8.02045 10.2429 7.95591 10.3526C7.89136 10.4622 7.85727 10.5871 7.85714 10.7143V16.345L4.68071 17.9321C4.51734 18.0135 4.39131 18.1543 4.32848 18.3256C4.26565 18.497 4.2708 18.6859 4.34286 18.8536L6.05857 22.8571H0.714286C0.524845 22.8571 0.343164 22.9324 0.209209 23.0664C0.0752549 23.2003 0 23.382 0 23.5714C0 23.7609 0.0752549 23.9426 0.209209 24.0765C0.343164 24.2105 0.524845 24.2857 0.714286 24.2857H29.2857C29.4752 24.2857 29.6568 24.2105 29.7908 24.0765C29.9247 23.9426 30 23.7609 30 23.5714C30 23.382 29.9247 23.2003 29.7908 23.0664C29.6568 22.9324 29.4752 22.8571 29.2857 22.8571H23.9414L25.6571 18.8536C25.7292 18.6859 25.7343 18.497 25.6715 18.3256C25.6087 18.1543 25.4827 18.0135 25.3193 17.9321L22.1429 16.345V10.7143C22.1427 10.5871 22.1086 10.4622 22.0441 10.3526C21.9795 10.2429 21.8869 10.1525 21.7757 10.0907L17.8571 7.91286V2.14286C17.8571 1.57454 17.6314 1.02949 17.2295 0.627628C16.8277 0.225765 16.2826 0 15.7143 0H14.2857ZM14.2857 1.42857H15.7143C15.9037 1.42857 16.0854 1.50383 16.2194 1.63778C16.3533 1.77174 16.4286 1.95342 16.4286 2.14286V3.57143H13.5714V2.14286C13.5714 1.95342 13.6467 1.77174 13.7806 1.63778C13.9146 1.50383 14.0963 1.42857 14.2857 1.42857ZM13.5714 5H16.4286V7.12071L15.3471 6.51929C15.241 6.46024 15.1215 6.42926 15 6.42926C14.8785 6.42926 14.759 6.46024 14.6529 6.51929L13.5714 7.12071V5ZM15 7.96071L16.8021 8.96214L16.8079 8.965L20.7143 11.1343V15.6307L15.3193 12.9321C15.2201 12.8826 15.1108 12.8568 15 12.8568C14.8892 12.8568 14.7799 12.8826 14.6807 12.9321L9.28571 15.6307V11.1343L15 7.96071ZM14.2857 14.7264V22.8571H7.61429L5.92214 18.9093L14.2857 14.7264ZM15.7143 14.7264L24.0779 18.9093L22.3857 22.8571H15.7143V14.7264ZM12.1664 17.8571C12.0477 17.8532 11.9298 17.879 11.8236 17.9321L8.96643 19.3607C8.79688 19.4454 8.66791 19.594 8.6079 19.7737C8.54789 19.9535 8.56175 20.1497 8.64643 20.3193C8.73111 20.4888 8.87967 20.6178 9.05944 20.6778C9.23921 20.7378 9.43545 20.724 9.605 20.6393L12.4621 19.2107C12.6047 19.1399 12.7194 19.0235 12.7883 18.88C12.8571 18.7365 12.876 18.5741 12.842 18.4186C12.8081 18.2631 12.7232 18.1235 12.6008 18.0217C12.4784 17.92 12.3255 17.8621 12.1664 17.8571ZM17.8336 17.8571C17.6745 17.8621 17.5216 17.92 17.3992 18.0217C17.2768 18.1235 17.1919 18.2631 17.158 18.4186C17.124 18.5741 17.1429 18.7365 17.2117 18.88C17.2806 19.0235 17.3953 19.1399 17.5379 19.2107L20.395 20.6393C20.479 20.6812 20.5703 20.7062 20.6639 20.7128C20.7576 20.7194 20.8515 20.7075 20.9406 20.6778C21.0296 20.6481 21.1119 20.6011 21.1827 20.5396C21.2536 20.4781 21.3116 20.4032 21.3536 20.3193C21.3955 20.2353 21.4205 20.1439 21.4271 20.0503C21.4337 19.9567 21.4218 19.8627 21.3921 19.7737C21.3624 19.6847 21.3154 19.6024 21.2539 19.5316C21.1924 19.4607 21.1175 19.4026 21.0336 19.3607L18.1764 17.9321C18.0702 17.879 17.9523 17.8532 17.8336 17.8571ZM3.57143 25.7143C3.38199 25.7143 3.20031 25.7895 3.06635 25.9235C2.9324 26.0574 2.85714 26.2391 2.85714 26.4286C2.85714 26.618 2.9324 26.7997 3.06635 26.9336C3.20031 27.0676 3.38199 27.1429 3.57143 27.1429H26.4286C26.618 27.1429 26.7997 27.0676 26.9336 26.9336C27.0676 26.7997 27.1429 26.618 27.1429 26.4286C27.1429 26.2391 27.0676 26.0574 26.9336 25.9235C26.7997 25.7895 26.618 25.7143 26.4286 25.7143H3.57143ZM0.714286 28.5714C0.524845 28.5714 0.343164 28.6467 0.209209 28.7806C0.0752549 28.9146 0 29.0963 0 29.2857C0 29.4752 0.0752549 29.6568 0.209209 29.7908C0.343164 29.9247 0.524845 30 0.714286 30H29.2857C29.4752 30 29.6568 29.9247 29.7908 29.7908C29.9247 29.6568 30 29.4752 30 29.2857C30 29.0963 29.9247 28.9146 29.7908 28.7806C29.6568 28.6467 29.4752 28.5714 29.2857 28.5714H0.714286Z" fill="#00509E"/>
</g>
<defs>
<clipPath id="clip0_2016_15">
<rect width="30" height="30" fill="white"/>
</clipPath>
</defs>
</svg>
