<svg width="24" height="24" viewBox="0 0 24 24" fill="none" xmlns="http://www.w3.org/2000/svg">
<path d="M23.9862 12.3283C23.9862 12.2751 23.9862 12.2216 23.9862 12.1682C23.9862 12.0737 23.9862 11.9792 23.9862 11.8846C23.9862 11.8317 23.9862 11.7788 23.9862 11.7259C23.9848 11.2997 23.9818 10.8726 23.9278 10.4499C23.7768 9.27248 23.455 8.14274 22.9639 7.06012C22.3776 5.76782 21.5895 4.61411 20.602 3.5979C20.0539 3.03413 19.4535 2.52961 18.8029 2.08598C17.9994 1.53792 17.1466 1.08492 16.234 0.745728C16.1822 0.72644 16.1307 0.706325 16.0737 0.717622C16.0282 0.731675 15.9946 0.763363 15.9596 0.793122C15.471 1.21085 14.9894 1.63629 14.5033 2.0565C13.826 2.64175 13.1523 3.23115 12.4759 3.81751C11.9832 4.2446 11.4938 4.675 10.9992 5.09962C10.9491 5.1426 10.8849 5.18394 10.9064 5.2688C10.946 5.33301 11.0158 5.34844 11.0791 5.37324C12.723 6.01994 14.3691 6.66196 16.0155 7.30233C16.1282 7.34614 16.1778 7.40786 16.1767 7.53599C16.1712 8.29787 16.1742 9.06003 16.1737 9.82191C16.1737 9.91367 16.1792 10.0054 16.1668 10.0972C16.1511 10.1556 16.0996 10.1832 16.0585 10.2176C14.7301 11.3258 13.397 12.4288 12.0692 13.5376C11.6994 13.8465 11.3244 14.1494 10.9576 14.4618C10.8992 14.5117 10.8088 14.5547 10.8642 14.661C11.0378 14.7779 11.2409 14.8269 11.4318 14.9019C12.9515 15.4981 14.4747 16.0851 15.991 16.6899C16.1742 16.7629 16.1742 16.7646 16.1742 16.9599C16.1745 17.7397 16.1745 18.5195 16.174 19.2993C16.174 19.3585 16.182 19.4192 16.1494 19.4743C16.1153 19.5429 16.0494 19.5806 15.9938 19.6266C14.6097 20.766 13.2298 21.9106 11.8471 23.0517C11.5465 23.2997 11.2423 23.5435 10.9477 23.7987C10.9014 23.8386 10.8218 23.8706 10.8639 23.9601C10.94 23.999 11.0271 23.9692 11.1045 23.9995C11.1411 23.9995 11.1781 23.9995 11.2147 23.9995C11.2332 23.9825 11.2513 23.9825 11.2698 23.9995C11.3065 23.9995 11.3434 23.9995 11.38 23.9995C11.4351 23.9778 11.4902 23.9778 11.5454 23.9995C11.8394 23.9995 12.1331 23.9995 12.4271 23.9995C12.4731 23.9775 12.5189 23.9775 12.5649 23.9995C12.6109 23.9995 12.6566 23.9995 12.7026 23.9995C12.7211 23.9825 12.7393 23.9825 12.7578 23.9995C12.7762 23.9995 12.7944 23.9995 12.8129 23.9995C12.8457 23.9742 12.8837 23.9888 12.9192 23.986C13.1884 23.9654 13.4598 23.9717 13.7277 23.9326C14.8384 23.77 15.9059 23.4609 16.9292 22.9966C18.5999 22.2388 20.0275 21.1595 21.2098 19.7584C21.9367 18.897 22.528 17.9483 22.986 16.9178C23.6352 15.4571 24.0066 13.9353 23.9862 12.3283Z" fill="#FE0000"/>
<path d="M13.0934 18.5048C13.1465 18.4594 13.2135 18.41 13.1689 18.3202C13.1217 18.2651 13.0548 18.2453 12.9908 18.2205C12.7467 18.1268 12.5029 18.032 12.2587 17.9377C10.8501 17.3935 9.44376 16.8438 8.03462 16.3016C7.82603 16.2214 7.82631 16.2197 7.82603 15.9927C7.82603 15.2167 7.82576 14.4408 7.82631 13.6649C7.82631 13.6009 7.8208 13.5362 7.84036 13.4731C7.85193 13.4287 7.89051 13.4089 7.92192 13.3833C9.35228 12.2116 10.7752 11.0312 12.2039 9.85738C12.5086 9.6069 12.8145 9.35754 13.1165 9.10376C13.1697 9.05912 13.2441 9.01586 13.1909 8.92438C13.1435 8.87781 13.081 8.8588 13.0214 8.8362C12.6095 8.68025 12.2003 8.51767 11.7895 8.35924C10.5311 7.874 9.27485 7.38353 8.01643 6.89857C7.82658 6.82527 7.82658 6.82362 7.82658 6.61834C7.82631 5.82918 7.82631 5.03974 7.82658 4.25058C7.82658 4.19106 7.82272 4.13127 7.8365 4.07202C7.88142 3.99432 7.95802 3.94886 8.02497 3.89512C9.5289 2.69264 11.0257 1.48135 12.5296 0.278591C12.5797 0.238637 12.6348 0.203367 12.6748 0.152942C12.7046 0.115468 12.7489 0.0719321 12.6781 0.0292226C12.5491 -0.00274065 12.4177 0.0209563 12.2877 0.0135165C12.232 0.0135165 12.1761 0.0135165 12.1201 0.0135165C12.0325 0.0135165 11.9446 0.0135165 11.857 0.0135165C11.8035 0.0135165 11.7501 0.0135165 11.6966 0.0135165C11.3571 0.00938335 11.0171 0.0182008 10.6801 0.046582C10.0574 0.0989356 9.44569 0.221278 8.84169 0.385778C6.85088 0.927501 5.11632 1.92249 3.6259 3.34321C3.0095 3.93067 2.46723 4.58399 1.99302 5.29242C1.44138 6.11657 0.992238 6.99281 0.65442 7.92525C0.365373 8.72213 0.162572 9.5405 0.0553846 10.3817C0.0223191 10.6399 0.0402296 10.9017 0 11.1593C0 11.196 0 11.2329 0 11.2695C0.0168083 11.285 0.0129506 11.3054 0.0137773 11.3247C0.0129506 11.3439 0.0168083 11.3643 0 11.3798C0 11.738 0 12.0962 0 12.4544C0.0217681 12.5095 0.0217681 12.5646 0 12.6197C0 12.7024 0 12.785 0 12.8677C0.0391274 13.116 0.0214925 13.3687 0.0529047 13.6172C0.206383 14.8387 0.553846 16.004 1.07711 17.1163C1.77947 18.6095 2.74608 19.9073 3.97749 21.0068C4.96174 21.8855 6.06695 22.5749 7.27522 23.1004C7.38736 23.1491 7.49731 23.2133 7.62681 23.2092C7.7081 23.185 7.7723 23.1348 7.83512 23.0802C8.01891 22.9215 8.2005 22.7601 8.38401 22.6011C8.97257 22.0908 9.56086 21.5799 10.1478 21.0679C10.7658 20.5287 11.3847 19.9903 12.0038 19.4524C12.3676 19.1369 12.7269 18.8167 13.0934 18.5048Z" fill="#FE0000"/>
<path d="M23.9768 12.1798C23.9768 12.0784 23.9768 11.9773 23.9768 11.8759C23.9848 11.8613 23.9922 11.8607 23.9997 11.8761C23.9997 11.9773 23.9997 12.0781 23.9997 12.1792C23.9925 12.1947 23.9848 12.1941 23.9768 12.1798Z" fill="#FDD4D4"/>
<path d="M12.1245 0.0228703C12.0325 0.0228703 11.9402 0.0228703 11.8482 0.0228703C11.8374 0.0176349 11.8338 0.0123995 11.8377 0.00743972C11.841 0.00247991 11.8446 0 11.8484 0C11.9402 0 12.0322 0 12.124 0C12.135 0.00495982 12.1386 0.00991963 12.135 0.015155C12.1317 0.0203904 12.1281 0.0228703 12.1245 0.0228703Z" fill="#FDD2D2"/>
<path d="M11.8483 0C11.8483 0.00771527 11.848 0.015155 11.8477 0.0228703C11.7926 0.0228703 11.7375 0.0228703 11.6824 0.0228703C11.6826 0.015155 11.6826 0.00771527 11.6829 0C11.738 0 11.7931 0 11.8483 0Z" fill="#FDE6E6"/>
<path d="M12.1246 0.0228703C12.1243 0.015155 12.124 0.00771527 12.124 0C12.1791 0 12.2342 0 12.2894 0C12.2896 0.00771527 12.2896 0.015155 12.2899 0.0228703C12.2348 0.0228703 12.1797 0.0228703 12.1246 0.0228703Z" fill="#FDE6E6"/>
<path d="M24 11.8759L23.9884 11.8754L23.9768 11.8756C23.9768 11.8205 23.9768 11.7654 23.9768 11.71C23.9845 11.7092 23.992 11.7092 23.9997 11.7106C24 11.7657 24 11.8208 24 11.8759Z" fill="#FDE5E5"/>
<path d="M23.9768 12.1795C23.9845 12.1801 23.9922 12.1798 24 12.179C24 12.2341 24 12.2892 24 12.3443L23.9884 12.3448L23.9768 12.3446C23.9768 12.2897 23.9768 12.2346 23.9768 12.1795Z" fill="#FDE9E9"/>
<path d="M0 12.4546C0.0341676 12.5097 0.0471182 12.5648 0 12.6199C0 12.5648 0 12.5097 0 12.4546Z" fill="#FD3C3C"/>
<path d="M11.3801 24C11.4352 23.9529 11.4903 23.9648 11.5455 24C11.4903 24 11.4352 24 11.3801 24Z" fill="#FD3737"/>
<path d="M12.4272 24C12.4733 23.9658 12.519 23.9551 12.565 24C12.519 24 12.4733 24 12.4272 24Z" fill="#FD3737"/>
<path d="M0 11.2695C0.0316877 11.2772 0.0259013 11.3009 0.0231458 11.3233C0.0165327 11.3423 0.00881745 11.3426 0 11.3246C0 11.3062 0 11.288 0 11.2695Z" fill="#FD9797"/>
<path d="M0 11.3247C0.00771527 11.3238 0.0154305 11.3233 0.0231458 11.3236C0.0275545 11.3473 0.0270034 11.3687 0 11.3798C0 11.3613 0 11.3431 0 11.3247Z" fill="#FD7777"/>
<path d="M11.2146 23.9998C11.2331 23.9593 11.2512 23.9634 11.2697 23.9998C11.2512 23.9998 11.2331 23.9998 11.2146 23.9998Z" fill="#FDA7A7"/>
<path d="M12.7026 23.9998C12.7211 23.9634 12.7393 23.9593 12.7577 23.9998C12.7393 23.9998 12.7211 23.9998 12.7026 23.9998Z" fill="#FDA7A7"/>
<path d="M13.1721 18.3569C12.3457 18.0345 11.5199 17.7113 10.693 17.3903C9.75974 17.0279 8.82591 16.6667 7.89071 16.3088C7.80088 16.2743 7.76672 16.2335 7.76727 16.133C7.77195 15.2708 7.76947 14.4086 7.7714 13.5464C7.7714 13.5056 7.74495 13.4547 7.79675 13.423C7.91221 13.4026 8.01195 13.4555 8.11308 13.4952C8.89893 13.8041 9.68755 14.1061 10.4729 14.4163C10.5539 14.4483 10.636 14.478 10.7173 14.5097C10.7779 14.5334 10.8352 14.5621 10.8636 14.6266C12.1512 15.1275 13.4388 15.6282 14.7262 16.1299C15.1907 16.311 15.6534 16.4972 16.1191 16.6761C16.205 16.7091 16.2326 16.7524 16.232 16.8461C16.2276 17.6994 16.2304 18.5531 16.2257 19.4064C16.2254 19.439 16.286 19.5247 16.1769 19.5197C16.0739 19.5588 15.9884 19.4977 15.9017 19.464C15.1103 19.1582 14.3186 18.8526 13.5276 18.5451C13.4507 18.5151 13.3721 18.4894 13.2961 18.4572C13.2454 18.4357 13.1933 18.415 13.1721 18.3569Z" fill="#FEFEFE"/>
<path d="M13.1916 8.96011C11.6088 8.34757 10.0258 7.73531 8.44309 7.12277C8.2469 7.04672 8.05209 6.96736 7.85425 6.89545C7.79335 6.8734 7.76855 6.84667 7.76855 6.77889C7.77076 5.88392 7.76993 4.98922 7.77048 4.09425C7.77048 4.06835 7.76304 4.03777 7.79721 4.02399C7.87271 4.00994 7.94187 4.03336 8.01076 4.06008C8.78421 4.36153 9.55684 4.66573 10.33 4.96883C10.4752 5.02587 10.6229 5.07657 10.7662 5.13774C10.8199 5.16061 10.8814 5.17549 10.9059 5.23942C11.4746 5.46537 12.0425 5.69324 12.6124 5.91643C13.7746 6.37163 14.9377 6.82518 16.1016 7.27625C16.1939 7.31207 16.233 7.3534 16.2325 7.46059C16.227 8.30899 16.2297 9.1574 16.2283 10.0058C16.2283 10.0529 16.2515 10.1072 16.2033 10.1472C16.1374 10.1557 16.0773 10.1359 16.0167 10.1124C15.1275 9.76938 14.2395 9.42385 13.35 9.0819C13.2852 9.0571 13.2219 9.02982 13.1916 8.96011Z" fill="#FEFEFE"/>
<path d="M13.1918 8.96021C14.1306 9.32475 15.0693 9.68902 16.0078 10.0544C16.0751 10.0806 16.1495 10.093 16.2035 10.1473C15.9037 10.4308 15.5766 10.6821 15.2603 10.9458C13.8264 12.1411 12.3899 13.3334 10.9549 14.527C10.9202 14.5557 10.8777 14.5786 10.8637 14.6265C9.8574 14.2336 8.85139 13.8409 7.8451 13.4477C7.82829 13.4411 7.81286 13.4312 7.79688 13.4227C9.57056 11.9617 11.3442 10.5008 13.1176 9.03929C13.1455 9.01669 13.1672 8.98666 13.1918 8.96021Z" fill="#FEB1B1"/>
<path d="M13.1722 18.3572C14.1738 18.7449 15.1754 19.1326 16.177 19.52C15.9786 19.7299 15.7408 19.8939 15.5218 20.0793C15.0685 20.4632 14.6075 20.8382 14.1493 21.216C13.6593 21.6202 13.1683 22.0233 12.6784 22.4275C12.2237 22.8025 11.7694 23.1781 11.3158 23.5545C11.1612 23.6826 11.0094 23.8138 10.8562 23.9436C10.366 23.9171 9.88492 23.8284 9.40629 23.7254C8.83812 23.603 8.28207 23.4391 7.73979 23.2288C7.70204 23.2142 7.66677 23.1944 7.63013 23.1767C7.91917 22.9659 8.1735 22.7141 8.44519 22.4829C8.84583 22.1418 9.24179 21.7952 9.63913 21.4499C9.94664 21.1826 10.2522 20.9131 10.5595 20.6459C10.9601 20.2976 11.3621 19.9509 11.7625 19.6024C12.0799 19.3257 12.3973 19.0488 12.7115 18.7683C12.8652 18.6311 13.0366 18.514 13.1722 18.3572Z" fill="#CF0000"/>
<path d="M10.9063 5.23947C10.404 5.04604 9.90115 4.85454 9.39966 4.65835C8.86455 4.44921 8.33137 4.23566 7.79736 4.02404C8.37491 3.5592 8.95245 3.0949 9.52944 2.62978C10.3059 2.00347 11.0813 1.37605 11.8584 0.750289C12.1077 0.549417 12.3607 0.352953 12.6109 0.152632C12.6461 0.124526 12.6737 0.0870519 12.7051 0.0537109C13.3124 0.0666616 13.9095 0.162276 14.5014 0.287924C15.0337 0.400898 15.56 0.539222 16.0665 0.743952C15.9045 0.938762 15.6934 1.08039 15.508 1.24985C15.1905 1.53918 14.8599 1.81417 14.5345 2.09523C14.147 2.43001 13.7588 2.76397 13.3722 3.09986C13.0581 3.37265 12.7464 3.64847 12.4323 3.92182C12.0391 4.26377 11.6445 4.60462 11.2502 4.94547C11.1359 5.04356 11.0207 5.14138 10.9063 5.23947Z" fill="#CF0000"/>
</svg>
