<svg width="30" height="30" viewBox="0 0 30 30" fill="none" xmlns="http://www.w3.org/2000/svg">
<path fill-rule="evenodd" clip-rule="evenodd" d="M11.25 4.6875H18.75C18.9986 4.6875 19.2371 4.58873 19.4129 4.41291C19.5887 4.2371 19.6875 3.99864 19.6875 3.75C19.6875 3.50136 19.5887 3.2629 19.4129 3.08709C19.2371 2.91127 18.9986 2.8125 18.75 2.8125H11.25C11.0014 2.8125 10.7629 2.91127 10.5871 3.08709C10.4113 3.2629 10.3125 3.50136 10.3125 3.75C10.3125 3.99864 10.4113 4.2371 10.5871 4.41291C10.7629 4.58873 11.0014 4.6875 11.25 4.6875ZM8.4375 6.5625C8.68614 6.5625 8.9246 6.46373 9.10041 6.28791C9.27623 6.1121 9.375 5.87364 9.375 5.625V1.875C9.375 1.62636 9.27623 1.3879 9.10041 1.21209C8.9246 1.03627 8.68614 0.9375 8.4375 0.9375C8.18886 0.9375 7.9504 1.03627 7.77459 1.21209C7.59877 1.3879 7.5 1.62636 7.5 1.875V5.625C7.5 5.87364 7.59877 6.1121 7.77459 6.28791C7.9504 6.46373 8.18886 6.5625 8.4375 6.5625ZM21.5625 6.5625C21.8111 6.5625 22.0496 6.46373 22.2254 6.28791C22.4012 6.1121 22.5 5.87364 22.5 5.625V1.875C22.5 1.62636 22.4012 1.3879 22.2254 1.21209C22.0496 1.03627 21.8111 0.9375 21.5625 0.9375C21.3139 0.9375 21.0754 1.03627 20.8996 1.21209C20.7238 1.3879 20.625 1.62636 20.625 1.875V5.625C20.625 5.87364 20.7238 6.1121 20.8996 6.28791C21.0754 6.46373 21.3139 6.5625 21.5625 6.5625Z" fill="#00509E"/>
<path fill-rule="evenodd" clip-rule="evenodd" d="M28.2384 3.63656C27.7111 3.10908 26.9959 2.81266 26.25 2.8125H24.375C24.1264 2.8125 23.8879 2.91127 23.7121 3.08709C23.5363 3.2629 23.4375 3.50136 23.4375 3.75C23.4375 3.99864 23.5363 4.2371 23.7121 4.41291C23.8879 4.58873 24.1264 4.6875 24.375 4.6875H26.25C26.4986 4.6875 26.7371 4.78627 26.9129 4.96209C27.0887 5.1379 27.1875 5.37636 27.1875 5.625V8.4375H23.4375C23.1889 8.4375 22.9504 8.53627 22.7746 8.71209C22.5988 8.8879 22.5 9.12636 22.5 9.375C22.5 9.62364 22.5988 9.8621 22.7746 10.0379C22.9504 10.2137 23.1889 10.3125 23.4375 10.3125H27.1875V26.25C27.1875 26.4986 27.0887 26.7371 26.9129 26.9129C26.7371 27.0887 26.4986 27.1875 26.25 27.1875H3.75C3.50136 27.1875 3.2629 27.0887 3.08709 26.9129C2.91127 26.7371 2.8125 26.4986 2.8125 26.25V10.3125H19.6875C19.9361 10.3125 20.1746 10.2137 20.3504 10.0379C20.5262 9.8621 20.625 9.62364 20.625 9.375C20.625 9.12636 20.5262 8.8879 20.3504 8.71209C20.1746 8.53627 19.9361 8.4375 19.6875 8.4375H2.8125V5.625C2.8125 5.37636 2.91127 5.1379 3.08709 4.96209C3.2629 4.78627 3.50136 4.6875 3.75 4.6875H5.625C5.87364 4.6875 6.1121 4.58873 6.28791 4.41291C6.46373 4.2371 6.5625 3.99864 6.5625 3.75C6.5625 3.50136 6.46373 3.2629 6.28791 3.08709C6.1121 2.91127 5.87364 2.8125 5.625 2.8125H3.75C3.00408 2.8125 2.28871 3.10882 1.76126 3.63626C1.23382 4.16371 0.9375 4.87908 0.9375 5.625V26.25C0.9375 26.9959 1.23382 27.7113 1.76126 28.2387C2.28871 28.7662 3.00408 29.0625 3.75 29.0625H26.25C26.9959 29.0625 27.7113 28.7662 28.2387 28.2387C28.7662 27.7113 29.0625 26.9959 29.0625 26.25V5.625C29.0623 4.87914 28.7659 4.16389 28.2384 3.63656Z" fill="#00509E"/>
<path fill-rule="evenodd" clip-rule="evenodd" d="M15.1876 24.375C15.4362 24.375 15.6747 24.2762 15.8505 24.1004C16.0263 23.9246 16.1251 23.6861 16.1251 23.4375V14.0625C16.1251 13.9081 16.087 13.7561 16.0141 13.62C15.9413 13.4839 15.8359 13.3679 15.7075 13.2823C15.579 13.1967 15.4314 13.1441 15.2777 13.1293C15.1241 13.1144 14.9691 13.1378 14.8266 13.1972L12.5766 14.1347C12.463 14.1821 12.3598 14.2514 12.273 14.3387C12.1861 14.426 12.1173 14.5295 12.0705 14.6434C12.0236 14.7572 11.9997 14.8792 12 15.0023C12.0003 15.1254 12.0249 15.2473 12.0723 15.3609C12.1197 15.4746 12.189 15.5778 12.2763 15.6646C12.3635 15.7515 12.4671 15.8203 12.5809 15.8671C12.8109 15.9617 13.069 15.961 13.2985 15.8653L14.2501 15.4688V23.4375C14.2501 23.6861 14.3488 23.9246 14.5247 24.1004C14.7005 24.2762 14.9389 24.375 15.1876 24.375Z" fill="#00509E"/>
</svg>
