<svg width="30" height="30" viewBox="0 0 30 30" fill="none" xmlns="http://www.w3.org/2000/svg">
<path d="M30 16.875V28.125H28.125V26.25H1.875V28.125H0V16.875H1.875V18.5303L5.625 11.0303V1.875H7.5V3.75H22.5V1.875H24.375V7.5C24.6387 7.5 24.8828 7.54883 25.1074 7.64648C25.332 7.74414 25.5273 7.87598 25.6934 8.04199C25.8594 8.20801 25.9961 8.4082 26.1035 8.64258C26.2109 8.87695 26.2598 9.12109 26.25 9.375V13.125C26.25 13.5059 26.1475 13.8477 25.9424 14.1504L28.125 18.5303V16.875H30ZM16.875 9.375V13.125H24.375V9.375H16.875ZM7.5 5.625V11.25H15V9.375C15 9.11133 15.0488 8.86719 15.1465 8.64258C15.2441 8.41797 15.376 8.22266 15.542 8.05664C15.708 7.89062 15.9082 7.75391 16.1426 7.64648C16.377 7.53906 16.6211 7.49023 16.875 7.5H22.5V5.625H7.5ZM3.86719 18.75H26.1328L24.2578 15H16.875C16.6113 15 16.3672 14.9512 16.1426 14.8535C15.918 14.7559 15.7227 14.624 15.5566 14.458C15.3906 14.292 15.2539 14.0918 15.1465 13.8574C15.0391 13.623 14.9902 13.3789 15 13.125H6.66504L3.86719 18.75ZM28.125 24.375V20.625H1.875V24.375H28.125Z" fill="#00509E"/>
</svg>
