<svg width="20" height="20" viewBox="0 0 20 20" fill="none" xmlns="http://www.w3.org/2000/svg">
<path d="M9 5.84375C9 5.38025 9.338 5 9.75 5H10.25C10.662 5 11 5.38025 11 5.84375V6.40625C11 6.86975 10.662 7.25 10.25 7.25H9.75C9.55133 7.24911 9.36102 7.15993 9.22054 7.00189C9.08006 6.84385 9.00079 6.62975 9 6.40625V5.84375ZM12 14H8V12.875H9V9.5H8V8.375H11V12.875H12V14Z" fill="#00509E"/>
<path d="M10 1C7.61305 1 5.32387 1.94821 3.63604 3.63604C1.94821 5.32387 1 7.61305 1 10C1 12.3869 1.94821 14.6761 3.63604 16.364C5.32387 18.0518 7.61305 19 10 19C12.3869 19 14.6761 18.0518 16.364 16.364C18.0518 14.6761 19 12.3869 19 10C19 7.61305 18.0518 5.32387 16.364 3.63604C14.6761 1.94821 12.3869 1 10 1ZM10 17.3125C8.0606 17.3125 6.20064 16.5421 4.82928 15.1707C3.45792 13.7994 2.6875 11.9394 2.6875 10C2.6875 8.0606 3.45792 6.20064 4.82928 4.82928C6.20064 3.45792 8.0606 2.6875 10 2.6875C11.9394 2.6875 13.7994 3.45792 15.1707 4.82928C16.5421 6.20064 17.3125 8.0606 17.3125 10C17.3125 11.9394 16.5421 13.7994 15.1707 15.1707C13.7994 16.5421 11.9394 17.3125 10 17.3125Z" fill="#00509E"/>
</svg>
