<svg width="50" height="50" viewBox="0 0 50 50" fill="none" xmlns="http://www.w3.org/2000/svg">
<g clip-path="url(#clip0_22_808)">
<path d="M21.5 43L21 49C23.3333 48.8333 28 48.4 28 48C28 47.6 27.6667 44.5 27.5 43H21.5Z" fill="#FFE100"/>
<circle cx="24.5" cy="10.5" r="1.5" fill="#FFE100"/>
<circle cx="22.5" cy="20.5" r="1.5" fill="#FFE100"/>
<circle cx="28.5" cy="23.5" r="1.5" fill="#FFE100"/>
<circle cx="24.5" cy="34.5" r="1.5" fill="#FFE100"/>
<circle cx="32.5" cy="37.5" r="1.5" fill="#FFE100"/>
<circle cx="17.5" cy="37.5" r="1.5" fill="#FFE100"/>
<path d="M24.6406 12.8346C23.0971 12.8328 21.8469 11.5809 21.8481 10.0375C21.849 8.494 23.101 7.24339 24.6445 7.24384C26.188 7.24428 27.4386 8.49578 27.4386 10.0392C27.4363 11.5831 26.1844 12.8333 24.6406 12.8346ZM24.6406 9.43669C24.481 9.43748 24.3283 9.50155 24.2159 9.61484C24.1035 9.72812 24.0406 9.88137 24.0411 10.0409C24.0416 10.2006 24.1055 10.3535 24.2186 10.4661C24.3317 10.5787 24.4848 10.6419 24.6445 10.6417C24.804 10.6414 24.9569 10.5778 25.0696 10.4648C25.1823 10.3519 25.2456 10.1988 25.2456 10.0393C25.2451 9.8792 25.1811 9.72586 25.0677 9.61291C24.9543 9.49996 24.8006 9.43651 24.6406 9.43669Z" fill="#00509E"/>
<path d="M43.0185 42.2696L35.5668 29.7008H37.7445C37.938 29.7008 38.128 29.6495 38.2953 29.5522C38.4627 29.455 38.6012 29.3152 38.6971 29.147C38.7927 28.9788 38.8422 28.7883 38.8404 28.5948C38.8387 28.4013 38.7858 28.2117 38.687 28.0452L31.2444 15.4916H32.5251C32.9193 15.4916 33.2829 15.2802 33.4778 14.9379C33.6727 14.5956 33.6688 14.1748 33.4682 13.8359L25.5837 0.53675C25.4866 0.373084 25.3486 0.237501 25.1833 0.143327C25.0179 0.0491544 24.8309 -0.000366211 24.6406 -0.000366211C24.4503 -0.000366211 24.2633 0.0491544 24.0979 0.143327C23.9326 0.237501 23.7945 0.373084 23.6975 0.53675L15.8128 13.8359C15.7142 14.0024 15.6613 14.1921 15.6597 14.3856C15.658 14.5791 15.7076 14.7696 15.8034 14.9378C15.8992 15.1059 16.0378 15.2457 16.2051 15.343C16.3724 15.4403 16.5625 15.4915 16.756 15.4916H18.0362L10.5936 28.0456C10.4949 28.2121 10.442 28.4018 10.4404 28.5953C10.4387 28.7889 10.4883 28.9794 10.5841 29.1476C10.6799 29.3157 10.8185 29.4556 10.9858 29.5528C11.1531 29.6501 11.3432 29.7014 11.5367 29.7014H13.7139L6.26258 42.2698C6.16392 42.4363 6.11107 42.6259 6.10942 42.8195C6.10776 43.013 6.15734 43.2035 6.25313 43.3717C6.34892 43.5398 6.48751 43.6796 6.65481 43.7769C6.82212 43.8742 7.01218 43.9254 7.20571 43.9255H19.9224V48.9037C19.9224 49.5092 20.4131 49.9999 21.0191 49.9999H28.2625C28.4064 49.9999 28.549 49.9715 28.682 49.9165C28.815 49.8614 28.9358 49.7806 29.0376 49.6789C29.1394 49.5771 29.2202 49.4562 29.2753 49.3232C29.3304 49.1902 29.3587 49.0477 29.3587 48.9037V43.9255H42.0754C42.2689 43.9254 42.459 43.8742 42.6263 43.7769C42.7936 43.6796 42.9322 43.5398 43.028 43.3717C43.1237 43.2035 43.1733 43.013 43.1717 42.8195C43.17 42.6259 43.1172 42.4363 43.0185 42.2698V42.2696ZM24.6406 3.24599L30.6007 13.2987H18.6808L24.6406 3.24599ZM13.4616 27.508L20.5858 15.4916H28.6952L35.8194 27.508H13.4616ZM27.1658 47.8069H22.1154V43.9253H27.1659L27.1658 47.8069ZM9.13062 41.7324L16.2613 29.7047H33.0198L40.1505 41.7324H9.13062Z" fill="#00509E"/>
<path d="M21.974 23.4323C20.4305 23.4305 19.1802 22.1786 19.1815 20.6352C19.1829 19.0918 20.4344 17.8411 21.9779 17.8416C23.5212 17.8424 24.7723 19.0935 24.7723 20.6369C24.7697 22.1813 23.5178 23.4314 21.974 23.4323ZM21.974 20.0348C21.8143 20.0355 21.6615 20.0995 21.549 20.2128C21.4365 20.3261 21.3736 20.4795 21.3741 20.6391C21.3744 20.7989 21.4381 20.952 21.5513 21.0648C21.6645 21.1776 21.8179 21.2408 21.9776 21.2405C22.1374 21.2402 22.2906 21.1764 22.4033 21.0632C22.5161 20.95 22.5793 20.7967 22.579 20.6369C22.5784 20.4768 22.5144 20.3236 22.4009 20.2107C22.2875 20.0979 22.134 20.0346 21.974 20.0348ZM29.062 26.6963C27.5181 26.6945 26.2683 25.4425 26.2692 23.899C26.2705 22.3557 27.5221 21.1049 29.0655 21.1055C30.6089 21.1063 31.86 22.3574 31.86 23.9008C31.8573 25.4446 30.6058 26.6954 29.062 26.6963ZM29.062 23.2988C28.9024 23.2995 28.7496 23.3634 28.6372 23.4766C28.5247 23.5898 28.4617 23.743 28.4621 23.9026C28.4626 24.0622 28.5265 24.2151 28.6396 24.3277C28.7527 24.4403 28.9058 24.5034 29.0655 24.5033C29.2251 24.503 29.378 24.4394 29.4908 24.3264C29.6036 24.2135 29.667 24.0604 29.667 23.9008C29.6665 23.7408 29.6025 23.5875 29.4891 23.4746C29.3756 23.3618 29.222 23.2985 29.062 23.2988ZM24.6406 36.815C23.0971 36.8137 21.8469 35.5613 21.8481 34.0179C21.849 32.4744 23.101 31.2243 24.6445 31.2247C26.1879 31.2252 27.4386 32.4767 27.4386 34.02C27.4363 35.564 26.1844 36.8141 24.6406 36.815ZM24.6406 33.4176C24.4808 33.4181 24.3278 33.482 24.2153 33.5953C24.1027 33.7087 24.0397 33.862 24.0403 34.0218C24.0408 34.1815 24.1047 34.3345 24.218 34.4471C24.3313 34.5596 24.4847 34.6226 24.6445 34.6221C24.804 34.6218 24.9569 34.5583 25.0696 34.4454C25.1823 34.3325 25.2456 34.1796 25.2456 34.02C25.2451 33.86 25.1811 33.7066 25.0677 33.5937C24.9542 33.4807 24.8006 33.4174 24.6406 33.4176ZM16.7559 40.0402C15.2124 40.0389 13.9623 38.7865 13.9636 37.2431C13.9644 35.6996 15.216 34.4495 16.7598 34.4499C18.3033 34.4503 19.5539 35.7014 19.5539 37.2452C19.5513 38.7887 18.2998 40.0393 16.7559 40.0402ZM16.7559 36.6428C16.5963 36.6435 16.4435 36.7075 16.3311 36.8208C16.2187 36.9341 16.1559 37.0874 16.1565 37.247C16.1597 37.4047 16.2247 37.5549 16.3375 37.6652C16.4503 37.7755 16.6018 37.8372 16.7596 37.8369C16.9174 37.8367 17.0687 37.7746 17.1812 37.6639C17.2936 37.5533 17.3582 37.403 17.361 37.2452C17.3605 37.0852 17.2965 36.9318 17.1831 36.8189C17.0696 36.7059 16.916 36.6426 16.7559 36.6428ZM32.5251 40.0402C30.9816 40.0389 29.7314 38.7865 29.7327 37.2431C29.7336 35.6996 30.9856 34.4495 32.5291 34.4499C34.0726 34.4503 35.3232 35.7014 35.3232 37.2452C35.3209 38.7891 34.069 40.0393 32.5251 40.0402ZM32.5251 36.6428C32.3655 36.6436 32.2128 36.7077 32.1004 36.8209C31.9881 36.9342 31.9252 37.0875 31.9257 37.247C31.9263 37.4065 31.9901 37.5593 32.1032 37.6719C32.2163 37.7844 32.3694 37.8475 32.529 37.8473C32.6885 37.847 32.8414 37.7835 32.9542 37.6706C33.0669 37.5578 33.1302 37.4048 33.1302 37.2452C33.1298 37.0851 33.0658 36.9317 32.9523 36.8188C32.8388 36.7058 32.6852 36.6425 32.5251 36.6428Z" fill="#00509E"/>
</g>
<defs>
<clipPath id="clip0_22_808">
<rect width="50" height="50" fill="white"/>
</clipPath>
</defs>
</svg>
