<svg width="20" height="20" viewBox="0 0 20 20" fill="none" xmlns="http://www.w3.org/2000/svg">
<path d="M12.5 7.5H14.1667V9.16667H12.5V7.5ZM14.1667 4.16667H12.5V5.83333H14.1667V4.16667ZM9.16667 12.5H10.8333V10.8333H9.16667V12.5ZM10.8333 4.16667H9.16667V5.83333H10.8333V4.16667ZM9.16667 9.16667H10.8333V7.5H9.16667V9.16667ZM7.5 4.16667H5.83333V5.83333H7.5V4.16667ZM7.5 7.5H5.83333V9.16667H7.5V7.5ZM12.125 17.5H10.8333V14.5833H9.16667V17.5H4.16667V2.5H15.8333V9.19167C16.425 9.24167 16.9917 9.425 17.5 9.69167V0.833332H2.5V19.1667H13.2583C12.9167 18.7 12.5 18.1333 12.125 17.5ZM5.83333 15.8333H7.5V14.1667H5.83333V15.8333ZM7.5 10.8333H5.83333V12.5H7.5V10.8333ZM18.3333 13.75C18.3333 15.9167 15.4167 19.1667 15.4167 19.1667C15.4167 19.1667 12.5 15.9167 12.5 13.75C12.5 12.1667 13.8333 10.8333 15.4167 10.8333C17 10.8333 18.3333 12.1667 18.3333 13.75ZM16.4167 13.8333C16.4167 13.3333 15.9167 12.8333 15.4167 12.8333C14.9167 12.8333 14.4167 13.25 14.4167 13.8333C14.4167 14.3333 14.8333 14.8333 15.4167 14.8333C16 14.8333 16.5 14.3333 16.4167 13.8333Z" fill="#00509E"/>
</svg>
