<svg width="24" height="24" viewBox="0 0 24 24" fill="none" xmlns="http://www.w3.org/2000/svg">
<circle cx="12" cy="12" r="12" fill="#F79A38"/>
<path d="M15.7426 13.6756C16.0575 13.3608 16.1024 12.911 15.8326 12.4612C15.6077 12.1014 15.2029 11.9215 14.7532 12.0115C14.5732 12.0564 14.3933 12.1464 14.2134 12.2813C12.8192 13.2258 10.9301 13.1809 9.53586 12.2364C9.44591 12.1914 9.35595 12.1464 9.266 12.1014C8.77126 11.8765 8.27652 11.9665 8.00666 12.4163C7.69183 12.866 7.7368 13.3608 8.14159 13.7656C8.23154 13.8555 8.32149 13.9005 8.36647 13.9904L8.41145 14.0354C9.04112 14.5302 9.80573 14.845 10.7952 14.9799L10.2105 15.5646C9.71577 16.0594 9.17605 16.5991 8.68131 17.0938C8.54638 17.2288 8.36647 17.4536 8.36647 17.7685C8.36647 18.1733 8.59136 18.5781 8.99615 18.758C9.13108 18.8479 9.266 18.8479 9.40093 18.8479C9.62582 18.8479 9.89568 18.758 10.0756 18.5331C10.7502 17.8584 11.29 17.3187 11.8297 16.779C11.8747 16.734 11.8746 16.734 11.8746 16.734C11.8746 16.734 11.9196 16.734 11.9196 16.779C12.2794 17.1838 12.6842 17.5436 13.044 17.9484C13.2239 18.1283 13.4039 18.3082 13.5838 18.4881C13.8086 18.713 13.9885 18.8029 14.2584 18.8029C14.6632 18.8479 15.113 18.578 15.2929 18.1733C15.4728 17.8134 15.3828 17.3637 15.068 17.0938C14.6182 16.6441 14.1685 16.1493 13.6737 15.6995L12.9091 14.9349C13.3139 14.89 13.7637 14.8 14.1685 14.6201C14.8431 14.3952 15.3378 14.0804 15.7426 13.6756Z" fill="white"/>
<path d="M11.8746 12.4163C13.8086 12.4163 15.3828 10.887 15.3828 8.95305C15.3828 8.00854 15.023 7.10901 14.3484 6.43437C13.6737 5.75972 12.8192 5.3999 11.9196 5.3999C9.98563 5.3999 8.45643 6.97408 8.41145 8.8631C8.41145 9.80761 8.77126 10.6622 9.44591 11.3368C10.0756 12.0564 10.9301 12.4163 11.8746 12.4163ZM10.8852 7.91859C11.155 7.64874 11.5148 7.5138 11.8746 7.5138C12.6842 7.5138 13.2689 8.14348 13.2689 8.90808C13.2689 9.71766 12.6392 10.3023 11.8746 10.3023C11.0651 10.3023 10.4804 9.67268 10.4804 8.90808C10.4804 8.54827 10.6153 8.18845 10.8852 7.91859Z" fill="white"/>
<path d="M15.7426 13.6756C16.0575 13.3608 16.1024 12.911 15.8326 12.4612C15.6077 12.1014 15.2029 11.9215 14.7532 12.0115C14.5732 12.0564 14.3933 12.1464 14.2134 12.2813C12.8192 13.2258 10.9301 13.1809 9.53586 12.2364C9.44591 12.1914 9.35595 12.1464 9.266 12.1014C8.77126 11.8765 8.27652 11.9665 8.00666 12.4163C7.69183 12.866 7.7368 13.3608 8.14159 13.7656C8.23154 13.8555 8.32149 13.9005 8.36647 13.9904L8.41145 14.0354C9.04112 14.5302 9.80573 14.845 10.7952 14.9799L10.2105 15.5646C9.71577 16.0594 9.17605 16.5991 8.68131 17.0938C8.54638 17.2288 8.36647 17.4536 8.36647 17.7685C8.36647 18.1733 8.59136 18.5781 8.99615 18.758C9.13108 18.8479 9.266 18.8479 9.40093 18.8479C9.62582 18.8479 9.89568 18.758 10.0756 18.5331C10.7502 17.8584 11.29 17.3187 11.8297 16.779C11.8747 16.734 11.8746 16.734 11.8746 16.734C11.8746 16.734 11.9196 16.734 11.9196 16.779C12.2794 17.1838 12.6842 17.5436 13.044 17.9484C13.2239 18.1283 13.4039 18.3082 13.5838 18.4881C13.8086 18.713 13.9885 18.8029 14.2584 18.8029C14.6632 18.8479 15.113 18.578 15.2929 18.1733C15.4728 17.8134 15.3828 17.3637 15.068 17.0938C14.6182 16.6441 14.1685 16.1493 13.6737 15.6995L12.9091 14.9349C13.3139 14.89 13.7637 14.8 14.1685 14.6201C14.8431 14.3952 15.3378 14.0804 15.7426 13.6756Z" fill="white"/>
</svg>
