<svg width="50" height="50" viewBox="0 0 50 50" fill="none" xmlns="http://www.w3.org/2000/svg">
<circle cx="30.5" cy="30.5" r="2.5" fill="#FFE100"/>
<circle cx="19.5" cy="19.5" r="2.5" fill="#FFE100"/>
<path d="M30.6011 26.1851C30.0211 26.1837 29.4467 26.2973 28.9109 26.5193C28.3751 26.7412 27.8886 27.0671 27.4795 27.4782C26.8617 28.0958 26.4409 28.8827 26.2704 29.7395C26.0999 30.5962 26.1873 31.4843 26.5215 32.2913C26.8557 33.0984 27.4218 33.7882 28.1481 34.2736C28.8745 34.7589 29.7284 35.018 30.6019 35.018C31.4755 35.018 32.3294 34.7589 33.0558 34.2736C33.7821 33.7882 34.3481 33.0984 34.6824 32.2913C35.0166 31.4843 35.104 30.5962 34.9335 29.7395C34.763 28.8827 34.3422 28.0958 33.7244 27.4782C33.3151 27.0669 32.8283 26.7409 32.2922 26.5189C31.7561 26.297 31.1813 26.1835 30.6011 26.1851ZM31.8509 31.8504C31.5144 32.1724 31.0666 32.3521 30.6009 32.3519C30.1352 32.3517 29.6875 32.1718 29.3512 31.8496C29.1043 31.6024 28.9363 31.2876 28.8683 30.945C28.8003 30.6024 28.8354 30.2473 28.9691 29.9246C29.1029 29.6019 29.3293 29.3261 29.6198 29.1321C29.9103 28.9381 30.2517 28.8345 30.6011 28.8345C30.9504 28.8345 31.2919 28.9381 31.5823 29.1321C31.8728 29.3261 32.0992 29.6019 32.233 29.9246C32.3668 30.2473 32.4019 30.6024 32.3339 30.945C32.2659 31.2876 32.0978 31.6033 31.8509 31.8504ZM19.4512 23.8656C20.4723 23.8647 21.4616 23.5098 22.2504 22.8614C23.0392 22.2129 23.5788 21.311 23.7772 20.3094C23.9756 19.3077 23.8206 18.2682 23.3385 17.3681C22.8564 16.4679 22.0771 15.7627 21.1334 15.3727C20.1897 14.9826 19.1399 14.9319 18.163 15.2291C17.186 15.5262 16.3424 16.1529 15.7757 17.0024C15.209 17.8519 14.9544 18.8715 15.0552 19.8877C15.1561 20.9038 15.6062 21.8536 16.3287 22.5751C16.7385 22.9852 17.2254 23.3103 17.7612 23.5316C18.2971 23.7529 18.8714 23.867 19.4512 23.8656ZM18.2013 18.2028C18.4483 17.9556 18.763 17.7872 19.1057 17.7189C19.4484 17.6506 19.8036 17.6854 20.1265 17.819C20.4494 17.9525 20.7254 18.1789 20.9196 18.4693C21.1139 18.7598 21.2176 19.1013 21.2177 19.4507C21.2178 19.8001 21.1143 20.1417 20.9203 20.4323C20.7263 20.7229 20.4504 20.9494 20.1276 21.0833C19.8048 21.2171 19.4496 21.2521 19.1069 21.1841C18.7642 21.116 18.4493 20.9478 18.2022 20.7008C17.8718 20.3691 17.6862 19.9201 17.686 19.452C17.6858 18.9838 17.8711 18.5347 18.2013 18.2028ZM46.337 23.1289L43.7975 19.9623L44.4158 15.9522C44.5232 15.2784 44.3954 14.5881 44.0539 13.9973C43.7124 13.4066 43.1781 12.9513 42.5406 12.7079L38.7574 11.2417L37.292 7.46032C37.0439 6.82627 36.5877 6.29536 35.9982 5.95464C35.4087 5.61392 34.721 5.48362 34.0477 5.58511L30.0375 6.20341L26.8718 3.66308C26.3423 3.23409 25.6815 3 25.0001 3C24.3186 3 23.6578 3.23409 23.1284 3.66308L19.9617 6.20252L15.9533 5.58511C15.28 5.48335 14.5921 5.61341 14.0025 5.95398C13.4128 6.29455 12.9564 6.82539 12.7081 7.45944L11.2418 11.2417L7.45955 12.7079C6.82588 12.9566 6.29534 13.4129 5.95469 14.0022C5.61405 14.5915 5.48347 15.279 5.5843 15.9522L6.20261 19.9623L3.66136 23.1289C3.23343 23.6585 3 24.3188 3 24.9997C3 25.6806 3.23343 26.3409 3.66136 26.8705L6.20261 30.0371L5.5843 34.0472C5.47698 34.721 5.60477 35.4113 5.94624 36.0021C6.28771 36.5928 6.82206 37.0481 7.45955 37.2915L11.2418 38.7577L12.7072 42.5391C12.9553 43.1731 13.4116 43.704 14.001 44.0448C14.5905 44.3855 15.2783 44.5158 15.9516 44.4143L19.9617 43.7969L23.1275 46.3363C23.657 46.7657 24.3179 47 24.9996 47C25.6813 47 26.3423 46.7657 26.8718 46.3363L30.0375 43.7969L34.0459 44.4152C34.7194 44.5163 35.4072 44.3858 35.9969 44.0452C36.5866 43.7045 37.0432 43.1739 37.292 42.54L38.7583 38.7577L42.5388 37.2924C43.1723 37.043 43.7025 36.5865 44.0432 35.9972C44.3839 35.4079 44.515 34.7205 44.415 34.0472L43.7966 30.0379L46.337 26.8714C46.7659 26.342 47 25.6814 47 25.0001C47 24.3188 46.7659 23.6582 46.337 23.1289ZM44.2701 25.2143L41.3658 28.8349C41.2509 28.9782 41.1671 29.1439 41.1197 29.3213C41.0722 29.4988 41.0622 29.6842 41.0902 29.8657L41.7969 34.4508C41.8083 34.5277 41.7934 34.6062 41.7546 34.6736C41.7158 34.7409 41.6554 34.7932 41.5831 34.8218L37.2549 36.4992C37.0831 36.5657 36.9271 36.6672 36.7967 36.7974C36.6664 36.9276 36.5646 37.0835 36.498 37.2553L34.8206 41.5834C34.7917 41.6551 34.7394 41.7151 34.6723 41.7535C34.6051 41.792 34.527 41.8067 34.4505 41.7953L29.8644 41.0887C29.6828 41.0608 29.4974 41.071 29.3199 41.1186C29.1425 41.1662 28.9768 41.2502 28.8336 41.3652L25.2121 44.2694C25.152 44.3187 25.0768 44.3456 24.9992 44.3456C24.9216 44.3456 24.8463 44.3187 24.7863 44.2694L21.1648 41.3652C21.0215 41.2503 20.8558 41.1665 20.6784 41.119C20.5009 41.0716 20.3155 41.0616 20.134 41.0896L15.5479 41.7962C15.4709 41.8076 15.3923 41.7926 15.325 41.7536C15.2576 41.7146 15.2054 41.654 15.1769 41.5816L13.5013 37.2544C13.4346 37.0827 13.3329 36.9267 13.2025 36.7965C13.0722 36.6663 12.9161 36.5648 12.7443 36.4983L8.41704 34.8209C8.3442 34.7933 8.2831 34.7414 8.24401 34.674C8.20492 34.6066 8.19023 34.5278 8.2024 34.4508L8.90904 29.8648C8.93706 29.6833 8.92704 29.4979 8.8796 29.3205C8.83215 29.143 8.74833 28.9774 8.63345 28.834L5.72916 25.2126C5.68026 25.1521 5.65358 25.0766 5.65358 24.9988C5.65358 24.921 5.68026 24.8456 5.72916 24.7851L8.63345 21.1636C8.74848 21.0203 8.83247 20.8547 8.88006 20.6773C8.92766 20.4998 8.93783 20.3144 8.90992 20.1328L8.20328 15.5468C8.19225 15.4702 8.20735 15.3921 8.24613 15.3251C8.28491 15.2581 8.34511 15.2062 8.41704 15.1776L12.7452 13.4993C12.9168 13.4328 13.0727 13.3311 13.2029 13.201C13.3331 13.0708 13.4347 12.9149 13.5013 12.7432L15.1778 8.41692C15.2063 8.34449 15.2585 8.28385 15.3258 8.24488C15.3932 8.2059 15.4718 8.19089 15.5488 8.20228L20.134 8.90891C20.3155 8.93693 20.5009 8.92691 20.6784 8.87947C20.8558 8.83202 21.0215 8.7482 21.1648 8.63332L24.7863 5.72908C24.8464 5.67962 24.9218 5.65258 24.9996 5.65258C25.0775 5.65258 25.1529 5.67962 25.2129 5.72908L28.8345 8.63332C28.9778 8.7482 29.1434 8.83202 29.3209 8.87947C29.4984 8.92691 29.6837 8.93693 29.8653 8.90891L34.4514 8.20228C34.5284 8.19023 34.6073 8.20496 34.6748 8.24402C34.7423 8.28308 34.7944 8.3441 34.8223 8.41692L36.4988 12.7441C36.5654 12.9158 36.667 13.0717 36.7972 13.2018C36.9274 13.332 37.0833 13.4336 37.2549 13.5002L41.5831 15.1776C41.6558 15.2054 41.7167 15.2573 41.7556 15.3247C41.7945 15.3921 41.8091 15.4708 41.7969 15.5477L41.0902 20.1337C41.0622 20.3152 41.0722 20.5006 41.1197 20.678C41.1671 20.8555 41.2509 21.0211 41.3658 21.1645L44.2701 24.7859C44.3191 24.8466 44.3458 24.9222 44.3458 25.0001C44.3458 25.0781 44.3191 25.1537 44.2701 25.2143ZM33.9797 16.0202C33.8566 15.8971 33.7105 15.7994 33.5497 15.7328C33.3889 15.6662 33.2166 15.6319 33.0425 15.6319C32.8684 15.6319 32.6961 15.6662 32.5353 15.7328C32.3745 15.7994 32.2284 15.8971 32.1053 16.0202L16.0205 32.1048C15.7719 32.3533 15.6322 32.6903 15.6321 33.0417C15.6321 33.2157 15.6663 33.388 15.7329 33.5488C15.7994 33.7096 15.897 33.8557 16.02 33.9787C16.143 34.1018 16.2891 34.1994 16.4498 34.2661C16.6106 34.3327 16.7829 34.367 16.9569 34.367C17.3083 34.3671 17.6454 34.2276 17.8939 33.9792L33.9788 17.8946C34.1019 17.7715 34.1996 17.6254 34.2662 17.4646C34.3329 17.3038 34.3672 17.1315 34.3672 16.9574C34.3672 16.7833 34.3329 16.611 34.2662 16.4502C34.1996 16.2894 34.1028 16.1433 33.9797 16.0202Z" fill="#00509E"/>
</svg>
