<svg width="30" height="30" viewBox="0 0 30 30" fill="none" xmlns="http://www.w3.org/2000/svg">
<path d="M26.6259 9.31339L26.3203 7.54756C26.0941 6.24173 24.8948 5.29412 23.4686 5.29412C23.2772 5.29412 23.0833 5.31142 22.8926 5.34563L4.28375 8.68766C2.655 8.98006 1.54184 10.4442 1.80251 11.9511L1.82328 12.0704V21.8041C1.82328 23.4042 3.23289 24.7059 4.96584 24.7059H25.0927C26.8256 24.7059 28.2352 23.4042 28.2352 21.8041V11.8438C28.2352 10.758 27.585 9.81084 26.6259 9.31339ZM23.1733 6.96613C23.2708 6.94856 23.3697 6.93965 23.4687 6.9395C24.1095 6.9395 24.6397 7.31551 24.7294 7.83312L24.9214 8.94174H12.1732L23.1733 6.96613ZM26.6197 21.8043C26.6197 22.4969 25.9347 23.0605 25.0927 23.0605H4.96584C4.12386 23.0605 3.43884 22.4969 3.43884 21.8043V11.8438C3.43884 11.1513 4.12386 10.5876 4.96584 10.5876H25.0927C25.9347 10.5876 26.6197 11.1513 26.6197 11.8438V21.8043Z" fill="#00509E"/>
<path d="M8.82349 17.8989H10.482V19.2854H8.82349V17.8989ZM8.82349 20.6723H10.482V22.0588H8.82349V20.6723ZM8.82349 12.3529H10.482V13.7395H8.82349V12.3529ZM8.82349 15.1259H10.482V16.5124H8.82349V15.1259ZM21.4657 14.2406L20.263 15.4891L16.4474 14.3797L15.8031 15.0053C15.7329 15.074 15.7329 15.1852 15.8033 15.2534L18.8969 16.9074L17.3411 18.4446L16.1382 18.2065L15.7368 18.5966C15.7241 18.6089 15.714 18.6235 15.7072 18.6395C15.7003 18.6556 15.6968 18.6728 15.6968 18.6901C15.6968 18.7075 15.7003 18.7247 15.7072 18.7408C15.714 18.7568 15.7241 18.7714 15.7368 18.7837L18.0077 20.9895C18.0333 21.0141 18.068 21.0279 18.1041 21.0278C18.1402 21.0277 18.1747 21.0138 18.2003 20.989L18.6017 20.5993L18.3504 19.4088L19.9268 17.8984L21.6412 20.9244C21.6579 20.9408 21.6779 20.9537 21.6998 20.9626C21.7217 20.9714 21.7453 20.976 21.769 20.976C21.7928 20.976 21.8163 20.9714 21.8382 20.9626C21.8602 20.9537 21.8801 20.9408 21.8969 20.9244L22.5409 20.2988L21.3912 16.5679L22.6672 15.4082C23.0186 15.0669 23.0338 14.5291 22.7021 14.2063C22.3705 13.8837 21.8171 13.8993 21.4657 14.2406Z" fill="#00509E"/>
</svg>
