<svg width="30" height="30" viewBox="0 0 30 30" fill="none" xmlns="http://www.w3.org/2000/svg">
<g clip-path="url(#clip0_22_733)">
<path d="M3.52941 3.52941H5.29412V5.29412H3.52941V3.52941ZM1.76471 24.0972C1.76471 22.2516 3.00559 20.6135 4.78235 20.1138L26.0615 14.129C28.3804 13.4769 30 11.3391 30 8.93006C30 5.95218 27.5772 3.52941 24.5993 3.52941H14.4957L16.5331 1.50882L15.2905 0.255882L11.1025 4.40918L15.2879 8.59447L16.5357 7.34665L14.4831 5.29412H24.5993C26.6042 5.29412 28.2353 6.92524 28.2353 8.93006C28.2353 10.5518 27.1449 11.9912 25.5837 12.4302L4.30459 18.4151C1.77012 19.1279 0 21.4645 0 24.0973C0 27.3521 2.64794 30 5.90271 30H22.0588V28.2353H5.90271C3.621 28.2353 1.76471 26.3789 1.76471 24.0972Z" fill="#00509E"/>
<path d="M3.72276 12.0218L4.41176 12.8831L5.10076 12.0218C5.13818 11.975 6.02741 10.8595 6.92794 9.39623C8.18577 7.35229 8.82353 5.67524 8.82353 4.41176C8.82353 1.97912 6.84441 0 4.41176 0C1.97912 0 0 1.97912 0 4.41176C0 5.67524 0.637765 7.35229 1.89559 9.39623C2.79612 10.8595 3.68535 11.975 3.72276 12.0218ZM4.41176 1.76471C5.87135 1.76471 7.05882 2.95218 7.05882 4.41176C7.05882 5.94935 5.50412 8.46771 4.41176 10.0004C3.31935 8.46759 1.76471 5.94935 1.76471 4.41176C1.76471 2.95218 2.95218 1.76471 4.41176 1.76471ZM25.5882 16.6471C23.1556 16.6471 21.1765 18.6262 21.1765 21.0588C21.1765 22.3195 21.8128 24.014 23.0679 26.0954C23.9671 27.5865 24.8549 28.7297 24.8922 28.7776L25.5882 29.6708L26.2842 28.7776C26.3216 28.7297 27.2094 27.5865 28.1086 26.0953C29.3636 24.014 30 22.3195 30 21.0588C30 18.6262 28.0209 16.6471 25.5882 16.6471ZM25.5882 26.7411C24.4938 25.1678 22.9412 22.5981 22.9412 21.0588C22.9412 19.5992 24.1286 18.4118 25.5882 18.4118C27.0478 18.4118 28.2353 19.5992 28.2353 21.0588C28.2353 22.5981 26.6825 25.1679 25.5882 26.7411Z" fill="#00509E"/>
<path d="M24.7058 20.2941H26.4705V22.0588H24.7058V20.2941Z" fill="#00509E"/>
</g>
<defs>
<clipPath id="clip0_22_733">
<rect width="30" height="30" fill="white"/>
</clipPath>
</defs>
</svg>
