<svg width="14" height="14" viewBox="0 0 14 14" fill="none" xmlns="http://www.w3.org/2000/svg">
<path d="M7 0C7.79565 0 8.55871 0.31607 9.12132 0.87868C9.68393 1.44129 10 2.20435 10 3C10 3.79565 9.68393 4.55871 9.12132 5.12132C8.55871 5.68393 7.79565 6 7 6C6.20435 6 5.44129 5.68393 4.87868 5.12132C4.31607 4.55871 4 3.79565 4 3C4 2.20435 4.31607 1.44129 4.87868 0.87868C5.44129 0.31607 6.20435 0 7 0ZM7 1.5C6.60218 1.5 6.22064 1.65804 5.93934 1.93934C5.65804 2.22064 5.5 2.60218 5.5 3C5.5 3.39782 5.65804 3.77936 5.93934 4.06066C6.22064 4.34196 6.60218 4.5 7 4.5C7.39782 4.5 7.77936 4.34196 8.06066 4.06066C8.34196 3.77936 8.5 3.39782 8.5 3C8.5 2.60218 8.34196 2.22064 8.06066 1.93934C7.77936 1.65804 7.39782 1.5 7 1.5ZM7 6.75C9.0025 6.75 13 7.7475 13 9.75V12H1V9.75C1 7.7475 4.9975 6.75 7 6.75ZM7 8.175C4.7725 8.175 2.425 9.27 2.425 9.75V10.575H11.575V9.75C11.575 9.27 9.2275 8.175 7 8.175Z" fill="white"/>
</svg>
