<svg width="24" height="24" viewBox="0 0 24 24" fill="none" xmlns="http://www.w3.org/2000/svg">
<circle cx="12" cy="12" r="12" fill="#4A76A8"/>
<path d="M17.8774 15.9986C17.8774 15.9452 17.8249 15.9452 17.8249 15.8918C17.6148 15.4644 17.1422 14.9301 16.5119 14.3425C16.1968 14.0753 16.0392 13.8616 15.9342 13.7548C15.7766 13.5411 15.7767 13.3808 15.8292 13.1671C15.8817 13.0069 16.0918 12.7397 16.4594 12.2589C16.6695 11.9918 16.7745 11.8315 16.9321 11.6712C17.7199 10.6027 18.0875 9.90821 17.9825 9.58767L17.93 9.53425C17.8774 9.48082 17.8249 9.4274 17.7199 9.4274C17.6148 9.37397 17.4573 9.37397 17.2997 9.4274H15.304C15.2515 9.4274 15.2515 9.4274 15.1464 9.4274C15.0939 9.4274 15.0414 9.4274 15.0414 9.4274H14.9889H14.9363L14.8838 9.48082C14.8313 9.53424 14.8313 9.53424 14.8313 9.58767C14.6212 10.1753 14.3586 10.6562 14.096 11.1904C13.9385 11.4575 13.7809 11.7247 13.6233 11.9384C13.4658 12.1521 13.3607 12.3123 13.2557 12.4192C13.1507 12.526 13.0456 12.5795 12.9931 12.6863C12.9406 12.7397 12.8356 12.7932 12.8356 12.7397C12.783 12.7397 12.7305 12.7397 12.7305 12.6863C12.678 12.6329 12.6255 12.5794 12.573 12.526C12.5204 12.4726 12.5204 12.3658 12.4679 12.2589C12.4679 12.1521 12.4679 12.0452 12.4679 11.9918C12.4679 11.9384 12.4679 11.7781 12.4679 11.6712C12.4679 11.511 12.4679 11.4041 12.4679 11.3507C12.4679 11.1904 12.4679 10.9767 12.4679 10.763C12.4679 10.5493 12.4679 10.389 12.4679 10.2822C12.4679 10.1753 12.4679 10.0151 12.4679 9.90822C12.4679 9.74794 12.4679 9.64109 12.4679 9.58767C12.4679 9.53424 12.4154 9.4274 12.4154 9.37397C12.3629 9.32055 12.3104 9.26712 12.2578 9.2137C12.2053 9.16027 12.1003 9.16027 12.0478 9.10685C11.7852 9.05342 11.47 9 11.1024 9C10.2621 9 9.68438 9.05343 9.4743 9.16028C9.36926 9.2137 9.26422 9.26712 9.2117 9.37397C9.10666 9.48082 9.10666 9.53425 9.15918 9.53425C9.42178 9.58767 9.63186 9.69452 9.7369 9.85479L9.78942 9.96165C9.84194 10.0151 9.84193 10.1219 9.89445 10.2822C9.94697 10.4425 9.94697 10.6027 9.94697 10.8164C9.94697 11.137 9.94697 11.4575 9.94697 11.6712C9.94697 11.9384 9.89445 12.0986 9.89445 12.2589C9.89445 12.4192 9.84194 12.526 9.78942 12.5795C9.7369 12.6863 9.73689 12.7397 9.68437 12.7397C9.68437 12.7397 9.68437 12.7931 9.63185 12.7931C9.57933 12.7931 9.52682 12.8466 9.42178 12.8466C9.36926 12.8466 9.26422 12.7932 9.2117 12.7397C9.10666 12.6863 9.00162 12.5795 8.9491 12.4726C8.84406 12.3658 8.73902 12.2055 8.63398 11.9918C8.52894 11.7781 8.37138 11.5644 8.26634 11.2438L8.16131 11.0301C8.10879 10.9233 8.00375 10.7096 7.89871 10.4425C7.79367 10.1753 7.68863 9.96165 7.58359 9.69452C7.53107 9.58767 7.47856 9.53424 7.42604 9.48082H7.37351C7.37351 9.48082 7.32099 9.4274 7.26847 9.4274C7.21595 9.4274 7.16344 9.37397 7.11092 9.37397H5.22021C5.01013 9.37397 4.90509 9.42739 4.85257 9.48082L4.80005 9.53425C4.80005 9.53425 4.80005 9.58767 4.80005 9.64109C4.80005 9.69452 4.80005 9.74794 4.85257 9.85479C5.11517 10.4959 5.43029 11.137 5.7454 11.7781C6.06052 12.3658 6.37564 12.9 6.58572 13.274C6.84832 13.6479 7.05839 14.0219 7.32099 14.3425C7.58359 14.663 7.74115 14.8767 7.79367 14.9836C7.8987 15.0904 7.95122 15.1438 8.00374 15.1973L8.16131 15.3575C8.26635 15.4644 8.4239 15.6247 8.63398 15.7849C8.84406 15.9452 9.10666 16.1055 9.36925 16.2658C9.63185 16.426 9.94698 16.5329 10.2621 16.6397C10.6297 16.7466 10.9448 16.8 11.26 16.7466H12.0478C12.2053 16.7466 12.3104 16.6932 12.4154 16.5863L12.4679 16.5329C12.4679 16.4795 12.5204 16.4795 12.5204 16.426C12.5204 16.3726 12.5204 16.3192 12.5204 16.2123C12.5204 15.9986 12.5204 15.8384 12.573 15.6781C12.6255 15.5178 12.6255 15.411 12.678 15.3041C12.7305 15.1973 12.783 15.1438 12.8356 15.0904C12.8881 15.037 12.9406 14.9836 12.9406 14.9836H12.9931C13.0981 14.9301 13.2557 14.9836 13.3607 15.0904C13.5183 15.1973 13.6759 15.3575 13.7809 15.5178C13.8859 15.6781 14.0435 15.8384 14.2536 16.0521C14.4637 16.2658 14.6212 16.426 14.7263 16.4795L14.8838 16.5863C14.9889 16.6397 15.0939 16.6932 15.2515 16.7466C15.409 16.8 15.514 16.8 15.6191 16.8L17.4048 16.7466C17.5623 16.7466 17.7199 16.6932 17.8249 16.6397C17.93 16.5863 17.9825 16.5329 17.9825 16.426C17.9825 16.3726 17.9825 16.2658 17.9825 16.2123C17.8774 16.1055 17.8774 16.0521 17.8774 15.9986Z" fill="white"/>
</svg>
