<svg width="24" height="24" viewBox="0 0 24 24" fill="none" xmlns="http://www.w3.org/2000/svg">
<circle cx="12" cy="12" r="12" fill="#48C95F"/>
<path d="M16.7561 6.8375C15.5707 5.65625 13.9902 5 12.3219 5C8.85366 5 6.0439 7.8 6.0439 11.2562C6.0439 12.35 6.35122 13.4437 6.87805 14.3625L6 17.6L9.33659 16.725C10.2585 17.2063 11.2683 17.4688 12.3219 17.4688C15.7902 17.4688 18.6 14.6688 18.6 11.2125C18.5561 9.59375 17.9415 8.01875 16.7561 6.8375ZM15.3512 13.4875C15.2195 13.8375 14.6049 14.1875 14.2976 14.2312C14.0341 14.275 13.6829 14.275 13.3317 14.1875C13.1122 14.1 12.8049 14.0125 12.4537 13.8375C10.8732 13.1813 9.86342 11.6063 9.77561 11.475C9.68781 11.3875 9.11707 10.6437 9.11707 9.85625C9.11707 9.06875 9.51219 8.71875 9.6439 8.54375C9.77561 8.36875 9.95122 8.36875 10.0829 8.36875C10.1707 8.36875 10.3024 8.36875 10.3902 8.36875C10.478 8.36875 10.6098 8.325 10.7415 8.63125C10.8732 8.9375 11.1805 9.725 11.2244 9.76875C11.2683 9.85625 11.2683 9.94375 11.2244 10.0313C11.1805 10.1188 11.1366 10.2062 11.0488 10.2937C10.961 10.3812 10.8732 10.5125 10.8293 10.5563C10.7415 10.6437 10.6537 10.7312 10.7415 10.8625C10.8293 11.0375 11.1366 11.5187 11.6195 11.9562C12.2341 12.4812 12.7171 12.6563 12.8927 12.7438C13.0683 12.8313 13.1561 12.7875 13.2439 12.7C13.3317 12.6125 13.639 12.2625 13.7268 12.0875C13.8146 11.9125 13.9463 11.9563 14.078 12C14.2098 12.0438 15 12.4375 15.1317 12.525C15.3073 12.6125 15.3951 12.6562 15.439 12.7C15.4829 12.8312 15.4829 13.1375 15.3512 13.4875Z" fill="white"/>
</svg>
