<svg width="22" height="20" viewBox="0 0 22 20" fill="none" xmlns="http://www.w3.org/2000/svg">
<path d="M19.7996 6H21.3996V9.2H19.7996V6ZM0.599609 6H2.19961V9.2H0.599609V6ZM14.1996 13.2H15.7996V14.8H14.1996V13.2ZM6.19961 13.2H7.79961V14.8H6.19961V13.2Z" fill="#04020F"/>
<path d="M15 0.399994H7C5.93952 0.401264 4.92285 0.823099 4.17298 1.57297C3.42311 2.32284 3.00127 3.33952 3 4.39999V15.6C3 16.0243 3.16857 16.4313 3.46863 16.7314C3.76869 17.0314 4.17565 17.2 4.6 17.2V19.6H6.2V17.2H15.8V19.6H17.4V17.2C17.8242 17.1994 18.2307 17.0306 18.5307 16.7307C18.8306 16.4307 18.9994 16.0241 19 15.6V4.39999C18.9987 3.33952 18.5769 2.32284 17.827 1.57297C17.0772 0.823099 16.0605 0.401264 15 0.399994ZM17.4 5.19999V9.99999H4.6V5.19999H17.4ZM7 1.99999H15C15.4947 2.00146 15.9769 2.15605 16.3803 2.44254C16.7836 2.72902 17.0884 3.13334 17.2528 3.59999H4.7472C4.91156 3.13334 5.21636 2.72902 5.61972 2.44254C6.02309 2.15605 6.50525 2.00146 7 1.99999ZM4.6 15.6V11.6H17.4008L17.4016 15.6H4.6Z" fill="#04020F"/>
</svg>
