<svg width="190" height="40" viewBox="0 0 190 40" fill="none" xmlns="http://www.w3.org/2000/svg">
<path fill-rule="evenodd" clip-rule="evenodd" d="M40.1619 3.67878V37.8951C40.1619 39.0526 39.2021 40 38.0276 40H34.2984C29.3005 40 19.4939 37.3702 26.0101 35.5476C29.6788 34.5206 26.611 32.8982 24.1891 32.2436C23.6675 32.0847 23.5272 32.0038 23.9616 31.8846C24.9216 31.6098 25.8372 31.2361 26.6996 30.7741C31.1408 28.4382 34.1638 23.8267 34.1638 18.5183C34.1638 10.8515 27.8577 4.63369 20.0803 4.63369C12.3042 4.63369 5.99763 10.8515 5.99763 18.5183C5.99763 24.8328 10.275 30.1621 16.1279 31.8466C16.1204 31.851 17.4306 32.2272 19.2486 32.6101C20.7758 32.9307 19.987 34.0777 18.3358 34.4839C13.5937 35.6505 11.4728 35.1957 7.7983 38.6748C6.87809 39.5471 5.33734 40 4.06307 40H2.13387C0.959988 40 0 39.0526 0 37.8951V2.10359C0 0.946022 0.959988 0 2.13387 0H4.49428H4.52228H35.641H35.6678H38.0276C39.2021 0 40.1619 0.946022 40.1619 2.10359V3.67878Z" fill="#00509E"/>
<path fill-rule="evenodd" clip-rule="evenodd" d="M178.146 20.3891C178.146 18.6784 179.52 16.6795 181.784 16.6795C184.304 16.6795 185.646 18.7889 185.646 21.5262C185.646 24.5196 184.129 26.5173 181.696 26.5173C180.095 26.5173 178.146 25.3741 178.146 22.8676V20.3891ZM178.146 36.0975V27.8821H178.206C179.006 29.1092 180.668 29.9136 182.644 29.9136C186.335 29.9136 190 27.1733 190 21.3836C190 16.5351 186.993 13.3138 183.217 13.3138C180.782 13.3138 178.892 14.342 177.743 16.0541H177.69L177.491 13.5714H173.713C173.796 15.1392 173.855 16.9646 173.855 18.9298V36.0975H178.146Z" fill="#00509E"/>
<path fill-rule="evenodd" clip-rule="evenodd" d="M162.258 28.2544C162.429 28.5971 162.486 28.8545 162.486 29.025C162.486 29.5387 160.911 32.4216 157.706 33.1071L158.679 36.7844C159.881 36.6138 161.569 36.0429 163.087 34.7324C164.948 33.135 166.408 30.6549 168.583 24.8624L172.705 13.5726H168.183L165.777 21.9819C165.492 22.9811 165.12 24.4063 164.891 25.3477H164.833C164.576 24.4063 164.147 23.009 163.832 22.0116L161.026 13.5726H156.303L162.258 28.2544Z" fill="#00509E"/>
<path fill-rule="evenodd" clip-rule="evenodd" d="M144.84 16.9646V29.6562H149.018V16.9646H154.973V13.6581H138.885V16.9646H144.84Z" fill="#00509E"/>
<path fill-rule="evenodd" clip-rule="evenodd" d="M120.981 29.9415C122.356 29.9415 123.5 29.5666 124.33 28.8824C126.591 27.513 127.107 24.5488 127.107 20.3566V16.9075H132.976V29.6562H137.156V13.6581H123.156V20.3009C123.156 23.7504 122.957 26.1451 120.467 26.6303L120.981 29.9415Z" fill="#00509E"/>
<path fill-rule="evenodd" clip-rule="evenodd" d="M115.76 21.6409C115.76 24.1223 114.756 26.8009 111.866 26.8009C108.916 26.8009 107.943 23.5519 107.943 21.354C107.943 18.3019 109.604 16.335 111.809 16.335C114.843 16.335 115.76 19.3063 115.76 21.6409ZM107.371 16.3675C107.513 14.9407 108.117 13.483 108.976 12.521C110.064 11.2059 111.75 10.4645 114.612 10.1189C115.787 10.0072 117.275 9.80871 118.135 9.52299L118.423 6.12816C117.337 6.44459 115.16 6.73268 113.753 6.92998C109.977 7.41524 107.485 8.84043 105.912 11.0057C104.165 13.3712 103.563 16.4235 103.563 19.5594C103.563 25.0876 105.967 29.9136 111.894 29.9136C117.018 29.9136 120.111 26.3731 120.111 21.4704C120.111 16.4513 117.189 13.3138 112.983 13.3138C110.604 13.3138 108.488 14.6259 107.513 16.3675H107.371Z" fill="#00509E"/>
<path fill-rule="evenodd" clip-rule="evenodd" d="M93.7208 26.8009C90.9723 26.8009 89.6578 24.3224 89.6578 21.6409C89.6578 19.0461 90.8571 16.4234 93.7208 16.4234C96.5003 16.4234 97.6729 19.1048 97.6729 21.5525C97.6729 24.7489 95.9836 26.8009 93.7208 26.8009ZM93.6085 29.9136C97.7587 29.9136 102.023 27.3396 102.023 21.4704C102.023 16.7353 98.7601 13.3138 93.864 13.3138C88.8292 13.3138 85.3066 16.566 85.3066 21.7572C85.3066 26.6879 88.7685 29.9136 93.6085 29.9136Z" fill="#00509E"/>
<path fill-rule="evenodd" clip-rule="evenodd" d="M72.1754 20.3891C72.1754 18.6784 73.5504 16.6795 75.8103 16.6795C78.3284 16.6795 79.6752 18.7889 79.6752 21.5262C79.6752 24.5196 78.1568 26.5173 75.7231 26.5173C74.1189 26.5173 72.1754 25.3741 72.1754 22.8676V20.3891ZM72.1754 36.0975V27.8821H72.2299C73.0304 29.1092 74.6919 29.9136 76.6681 29.9136C80.3619 29.9136 84.0264 27.1733 84.0264 21.3836C84.0264 16.5351 81.0192 13.3138 77.2412 13.3138C74.8059 13.3138 72.9182 14.342 71.7724 16.0541H71.7162L71.5165 13.5714H67.7373C67.8244 15.1392 67.8804 16.9646 67.8804 18.9298V36.0975H72.1754Z" fill="#00509E"/>
<path fill-rule="evenodd" clip-rule="evenodd" d="M58.1831 17.5058C55.0888 17.5058 53.2869 16.1354 53.2869 14.0567C53.2869 11.7751 55.0888 10.6322 58.0959 10.6322C59.7572 10.6322 60.6996 10.7188 61.2138 10.8323V17.5058H58.1831ZM53.544 19.386C51.6842 19.9009 50.6816 21.354 50.1692 23.2662C49.4511 25.8319 48.5934 28.6839 47.9922 29.6575H52.5455C53.0005 28.9971 53.433 27.7704 54.2895 24.377C55.0326 21.4967 56.0943 20.7849 58.6113 20.7011H61.2138V29.6575H65.4831V7.86815C63.7361 7.61254 61.1886 7.38276 58.4975 7.38276C49.7363 7.38276 48.9948 11.6045 48.9948 13.714C48.9948 16.7924 51.0819 18.6475 53.544 19.2743V19.386Z" fill="#00509E"/>
</svg>
